<?xml version="1.0" encoding="UTF-8"?>
<svg version="1.1" xmlns="http://www.w3.org/2000/svg" width="900" height="388">
<path d="M0 0 C297 0 594 0 900 0 C900 128.04 900 256.08 900 388 C603 388 306 388 0 388 C0 259.96 0 131.92 0 0 Z " fill="#2C4776" transform="translate(0,0)"/>
<path d="M0 0 C297 0 594 0 900 0 C900 128.04 900 256.08 900 388 C603 388 306 388 0 388 C0 259.96 0 131.92 0 0 Z M89 64 C89 78.85 89 93.7 89 109 C82.4 109 75.8 109 69 109 C63.7544425 109.05978931 58.51057351 109.12875562 53.265625 109.21875 C51.88173651 109.24131186 50.49784566 109.26372871 49.11395264 109.28601074 C45.55004448 109.34376703 41.98617103 109.40343152 38.42230225 109.46356201 C34.75421082 109.52509022 31.08608849 109.58471922 27.41796875 109.64453125 C20.27861539 109.76121323 13.1392971 109.87992096 6 110 C5.95324951 133.18325543 5.9179962 156.36650307 5.89637566 179.5497961 C5.8860694 190.31454483 5.87202148 201.07926423 5.84912109 211.84399414 C5.82916733 221.22809782 5.81627883 230.61218027 5.81182301 239.99630457 C5.80921901 244.96368289 5.80311195 249.93100047 5.78853989 254.8983593 C5.77492462 259.5776529 5.77078533 264.25686096 5.77378464 268.93617249 C5.77323624 270.64977038 5.76928237 272.36337126 5.76158905 274.07695198 C5.72659925 282.27535959 5.70123324 290.05031474 8 298 C13.45426174 298.23898645 13.45426174 298.23898645 18.73046875 297.08984375 C22.67803201 295.77398933 26.58939134 295.10578519 30.6875 294.4375 C36.4120139 293.51836165 36.4120139 293.51836165 42 292 C45.42792492 291.74101721 48.84994315 291.55758845 52.28320312 291.39453125 C56.27142972 291.25968513 56.27142972 291.25968513 60 290 C62.17674783 289.84530633 64.3578348 289.74997894 66.5390625 289.68359375 C67.71162598 289.64548584 68.88418945 289.60737793 70.09228516 289.56811523 C71.58808105 289.52501221 73.08387695 289.48190918 74.625 289.4375 C81.740625 289.2209375 81.740625 289.2209375 89 289 C89 302.53 89 316.06 89 330 C355.97 330 622.94 330 898 330 C898 242.22 898 154.44 898 64 C631.03 64 364.06 64 89 64 Z " fill="#FEFEFE" transform="translate(0,0)"/>
<path d="M0 0 C130.68 0 261.36 0 396 0 C396 83.16 396 166.32 396 252 C265.32 252 134.64 252 0 252 C0 168.84 0 85.68 0 0 Z " fill="#FEFEFE" transform="translate(495,71)"/>
<path d="M0 0 C0 58.74 0 117.48 0 178 C-50.82 178 -101.64 178 -154 178 C-154 119.26 -154 60.52 -154 0 C-102.18626835 -0.82244018 -51.86288411 -0.73046316 0 0 Z " fill="#0495FC" transform="translate(160,110)"/>
<path d="M0 0 C16.438125 -0.0825 32.87625 -0.165 49.8125 -0.25 C54.98526611 -0.28641602 60.15803223 -0.32283203 65.48754883 -0.36035156 C71.84899902 -0.37841797 71.84899902 -0.37841797 74.83573914 -0.3817749 C76.90279086 -0.38788032 78.96982917 -0.4018715 81.03678894 -0.42230225 C106.68438073 -0.66293944 106.68438073 -0.66293944 113.99543762 5.75042725 C120.25721934 12.23319923 119.24195866 20.36301203 119.3125 28.875 C119.35600586 30.61330078 119.35600586 30.61330078 119.40039062 32.38671875 C119.45044382 39.12464829 119.30145106 43.66503616 115 49 C112.421875 50.77734375 112.421875 50.77734375 109.75 51.9375 C108.85796875 52.33839844 107.9659375 52.73929688 107.046875 53.15234375 C106.37140625 53.43207031 105.6959375 53.71179688 105 54 C106.95702015 55.3046801 108.93582457 56.57742367 110.9375 57.8125 C115.60335176 61.14525126 118.17164182 64.60012479 120 70 C120.43528159 74.07482097 120.37024291 78.15414525 120.375 82.25 C120.39949219 83.34441406 120.42398438 84.43882812 120.44921875 85.56640625 C120.47976825 94.06934987 119.24416278 100.60837527 113.25 106.875 C104.85499346 112.36404274 96.33531447 113.15381558 86.50634766 113.11352539 C85.55405462 113.11364593 84.60176159 113.11376646 83.62061119 113.11389065 C80.5517375 113.11314693 77.48292527 113.10554336 74.4140625 113.09765625 C72.51391631 113.09618516 70.61376972 113.09516548 68.71362305 113.09460449 C61.68407583 113.08937102 54.65453731 113.07540976 47.625 113.0625 C31.90875 113.041875 16.1925 113.02125 0 113 C0 75.71 0 38.42 0 0 Z " fill="#314977" transform="translate(553,143)"/>
<path d="M0 0 C0 48.84 0 97.68 0 148 C-22.11 148 -44.22 148 -67 148 C-67.08060607 113.76481149 -67.08060607 113.76481149 -67.09765625 99.44726562 C-67.10953554 89.55116713 -67.12352027 79.65510263 -67.15087891 69.7590332 C-67.17079227 62.55261533 -67.18371155 55.34622496 -67.18817699 48.13978034 C-67.19078786 44.32282947 -67.19693841 40.50595729 -67.21146011 36.6890316 C-67.22501162 33.09809861 -67.2292276 29.50727693 -67.22621536 25.9163208 C-67.22702992 23.96668582 -67.23780427 22.01706302 -67.24884033 20.06745911 C-67.246091 18.91059601 -67.24334167 17.75373291 -67.24050903 16.56181335 C-67.24235262 15.55429362 -67.24419621 14.54677389 -67.24609566 13.50872326 C-67 11 -67 11 -65 8 C-62.52925938 7.38305994 -60.19572018 6.93135591 -57.6875 6.5625 C-52.3715188 5.6900298 -47.3736813 4.59531481 -42.25 2.875 C-28.43762124 -1.52213637 -14.55547551 0 0 0 Z " fill="#FCFDFD" transform="translate(89,125)"/>
<path d="M0 0 C16.1503192 -0.02332909 32.30063296 -0.04097922 48.45096493 -0.05181217 C55.94933064 -0.05697511 63.44768591 -0.06401776 70.94604492 -0.07543945 C77.47930504 -0.08538637 84.01255759 -0.09185344 90.54582506 -0.09408849 C94.00721807 -0.09539559 97.46858942 -0.09848136 100.92997551 -0.10573006 C104.78787527 -0.11374407 108.64575357 -0.11399113 112.50366211 -0.11352539 C114.23750656 -0.1189183 114.23750656 -0.1189183 116.00637817 -0.12442017 C117.05110794 -0.1230455 118.09583771 -0.12167084 119.17222595 -0.12025452 C120.54247122 -0.12163721 120.54247122 -0.12163721 121.94039822 -0.12304783 C124 0 124 0 125 1 C125.09660952 2.92361627 125.12187168 4.85083066 125.12025452 6.77687073 C125.12231651 8.65949615 125.12231651 8.65949615 125.12442017 10.58015442 C125.12088055 11.98385644 125.11724574 13.38755822 125.11352539 14.79125977 C125.11324353 16.25936888 125.11340124 17.72747813 125.1139679 19.19558716 C125.1142559 23.19334657 125.10835874 27.19107624 125.10139394 31.18882871 C125.09516085 35.36220733 125.09455664 39.53558656 125.09336853 43.70896912 C125.09025508 51.61732792 125.08204151 59.52567297 125.07201904 67.4340257 C125.06085832 76.43508494 125.05534756 85.43614482 125.05032361 94.43720925 C125.03985891 112.95814889 125.02151326 131.47906967 125 150 C106.19 150 87.38 150 68 150 C68 100.83 68 51.66 68 1 C33.70156448 1.52695998 33.70156448 1.52695998 0 8 C0 5.36 0 2.72 0 0 Z " fill="#2B4878" transform="translate(21,124)"/>
<path d="M0 0 C4.32201926 0.22617331 7.27896709 0.64168753 10.53613281 3.62011719 C14.7892053 9.32627621 17.72714024 15.78314438 20.73339844 22.20654297 C23.45847017 27.83883304 26.6699073 33.17087503 29.85107422 38.55419922 C31.11290732 40.73752616 32.37201075 42.92243291 33.62841797 45.10888672 C36.76437907 50.55296046 39.90293122 55.9955324 43.04296875 61.43725586 C44.28507445 63.58994728 45.52693841 65.74277821 46.76855469 67.89575195 C49.66133648 72.91160319 52.55569067 77.9265243 55.45632935 82.93783569 C56.47375127 84.69577991 57.49061883 86.45404364 58.50732422 88.21240234 C59.77576232 90.40574322 61.04521524 92.59849769 62.31591797 94.79052734 C66.11748511 101.3672385 69.8002872 107.99709309 73.41357422 114.67919922 C66.15357422 114.67919922 58.89357422 114.67919922 51.41357422 114.67919922 C49.41587101 111.01504461 47.42077591 107.34970812 45.43212891 103.68066406 C44.75459326 102.43245241 44.07556247 101.18505114 43.39501953 99.93847656 C42.41810921 98.14842368 41.44658074 96.35554274 40.47607422 94.56201172 C39.88955078 93.48322754 39.30302734 92.40444336 38.69873047 91.29296875 C37.41357422 88.67919922 37.41357422 88.67919922 37.41357422 86.67919922 C11.01357422 87.00919922 -15.38642578 87.33919922 -42.58642578 87.67919922 C-49.51642578 100.54919922 -49.51642578 100.54919922 -56.58642578 113.67919922 C-57.58642578 114.67919922 -57.58642578 114.67919922 -59.4440918 114.79272461 C-60.63023071 114.78486938 -60.63023071 114.78486938 -61.84033203 114.77685547 C-62.69433594 114.77363281 -63.54833984 114.77041016 -64.42822266 114.76708984 C-65.32605469 114.75871094 -66.22388672 114.75033203 -67.14892578 114.74169922 C-68.050625 114.7371875 -68.95232422 114.73267578 -69.88134766 114.72802734 C-72.11643892 114.71620146 -74.35140015 114.69972142 -76.58642578 114.67919922 C-75.22880043 111.09216774 -73.63136291 107.80126104 -71.75048828 104.46044922 C-70.90526611 102.95466309 -70.90526611 102.95466309 -70.04296875 101.41845703 C-69.43855957 100.34950195 -68.83415039 99.28054687 -68.21142578 98.17919922 C-67.58510254 97.06641602 -66.9587793 95.95363281 -66.31347656 94.80712891 C-60.92802038 85.25145229 -55.49392432 75.72376889 -50.03662109 66.20898438 C-47.63195801 62.01418321 -45.23459976 57.81521235 -42.83642578 53.61669922 C-41.84816003 51.8875237 -40.85987828 50.15835731 -39.87158203 48.42919922 C-37.77210752 44.75528168 -35.67386499 41.08066372 -33.5765686 37.40550232 C-32.15881604 34.92129238 -30.74061961 32.43733596 -29.3223877 29.95339966 C-28.63671899 28.75224204 -27.95124543 27.55097299 -27.26599121 26.34957886 C-23.75226366 20.18945417 -20.2258415 14.03687088 -16.66845703 7.90185547 C-15.81537964 6.43051147 -15.81537964 6.43051147 -14.94506836 4.92944336 C-11.78372764 -0.30650946 -5.68737214 0.22895098 0 0 Z " fill="#304976" transform="translate(781.58642578125,141.32080078125)"/>
<path d="M0 0 C0.77280807 -0.0065712 1.54561615 -0.0131424 2.34184265 -0.01991272 C4.90237531 -0.03963779 7.46284914 -0.0513106 10.0234375 -0.0612793 C10.90059418 -0.06535482 11.77775085 -0.06943035 12.68148804 -0.07362938 C17.33013676 -0.0944933 21.97875599 -0.10878992 26.62744141 -0.11816406 C31.40756064 -0.12918958 36.18720936 -0.16354357 40.96716309 -0.20333576 C44.6597372 -0.22961221 48.35220148 -0.23786595 52.04486084 -0.24144554 C53.80535028 -0.24628824 55.56583558 -0.25783537 57.32623291 -0.27648354 C78.78256675 -0.4895254 78.78256675 -0.4895254 86.37963867 5.82328796 C91.56136532 11.0784664 92.47873934 17.0476457 92.5234375 24.17700195 C92.4821875 25.49700195 92.4409375 26.81700195 92.3984375 28.17700195 C86.7884375 29.49700195 81.1784375 30.81700195 75.3984375 32.17700195 C75.3984375 26.89700195 75.3984375 21.61700195 75.3984375 16.17700195 C48.0084375 16.17700195 20.6184375 16.17700195 -7.6015625 16.17700195 C-7.6015625 26.40700195 -7.6015625 36.63700195 -7.6015625 47.17700195 C-5.10932129 47.15605469 -2.61708008 47.13510742 -0.04931641 47.11352539 C8.21273118 47.04705428 16.47479101 47.00298648 24.73703575 46.96975327 C29.74329219 46.94893604 34.74927316 46.92072618 39.75537109 46.87524414 C44.59240019 46.83157639 49.42916539 46.8078208 54.2663765 46.79749298 C56.10585302 46.79013902 57.94531616 46.77577891 59.78467941 46.75408173 C80.90107256 46.5150447 80.90107256 46.5150447 88.02206421 52.55389404 C94.48508878 59.58854685 93.74026938 68.38006803 93.71411133 77.28930664 C93.71095598 79.53882536 93.73442839 81.78702082 93.75976562 84.03637695 C93.79795047 92.69507649 93.41211815 99.50060094 88.5859375 106.98950195 C82.63493704 112.94050242 75.34899745 113.27481524 67.29672241 113.32363892 C66.55056671 113.32318573 65.80441101 113.32273254 65.03564453 113.32226562 C64.22977905 113.32562424 63.42391357 113.32898285 62.59362793 113.33244324 C59.94781931 113.34188862 57.3020744 113.34389303 54.65625 113.3449707 C52.80451431 113.34818748 50.95277887 113.35155186 49.1010437 113.35505676 C45.22604788 113.3610318 41.35107432 113.36289831 37.47607422 113.36230469 C32.52787519 113.3622031 27.57981976 113.37585932 22.63165474 113.3930769 C18.80878045 113.40423254 14.9859405 113.40622281 11.16305161 113.40569496 C9.33953227 113.40686955 7.51601188 113.41126183 5.6925087 113.41902733 C3.13491186 113.42890055 0.57762204 113.42592063 -1.97998047 113.41992188 C-2.72208771 113.42554138 -3.46419495 113.43116089 -4.22879028 113.43695068 C-12.05302579 113.39066494 -19.3863197 112.51887316 -25.16015625 106.91918945 C-30.8732443 100.0139394 -29.9250592 91.70772962 -29.6015625 83.17700195 C-26.97726126 82.50747635 -24.35219593 81.84126477 -21.7265625 81.17700195 C-20.98019531 80.9862207 -20.23382813 80.79543945 -19.46484375 80.59887695 C-13.828125 79.17700195 -13.828125 79.17700195 -11.6015625 79.17700195 C-11.6015625 85.11700195 -11.6015625 91.05700195 -11.6015625 97.17700195 C17.4384375 97.17700195 46.4784375 97.17700195 76.3984375 97.17700195 C76.3984375 85.95700195 76.3984375 74.73700195 76.3984375 63.17700195 C72.50804687 63.20842285 72.50804687 63.20842285 68.5390625 63.24047852 C59.9536954 63.30686516 51.36831673 63.35098392 42.78276062 63.38425064 C37.57915631 63.40509304 32.37581579 63.4333496 27.17236328 63.47875977 C22.14731262 63.52233678 17.12251513 63.54616423 12.09729004 63.55651093 C10.18359392 63.56388102 8.26991109 63.57827311 6.35632324 63.59992218 C3.66823782 63.62911394 0.9811881 63.63295141 -1.70703125 63.63110352 C-2.49178329 63.64548462 -3.27653534 63.65986572 -4.08506775 63.67468262 C-9.6834834 63.6332525 -13.90726552 62.26223794 -18.6015625 59.17700195 C-26.16904293 51.4103773 -25.80140941 41.63315617 -25.8515625 31.42700195 C-25.8721875 30.39317383 -25.8928125 29.3593457 -25.9140625 28.29418945 C-25.95419073 20.32873534 -25.32095406 12.72731872 -20.3515625 6.23950195 C-14.11631321 1.56306499 -7.69725449 0.02837786 0 0 Z " fill="#F7F8FA" transform="translate(313.6015625,142.822998046875)"/>
<path d="M0 0 C10.23 0 20.46 0 31 0 C31 58.08 31 116.16 31 176 C-16.52 176 -64.04 176 -113 176 C-112 167 -112 167 -111 165 C-107.96743977 163.98914659 -105.95086816 163.8766397 -102.77986145 163.87974548 C-101.69872574 163.87837082 -100.61759003 163.87699615 -99.50369263 163.87557983 C-98.31758392 163.87917511 -97.13147522 163.88277039 -95.90942383 163.88647461 C-94.66052872 163.88632858 -93.41163361 163.88618256 -92.12489319 163.8860321 C-88.69953667 163.88660987 -85.27424024 163.89162915 -81.84889436 163.89860606 C-78.26943784 163.90485244 -74.68998054 163.90544442 -71.11051941 163.90663147 C-64.33199544 163.90974099 -57.55348758 163.91794928 -50.77497071 163.92798096 C-43.05800062 163.93915385 -35.34102976 163.94465552 -27.6240536 163.94967639 C-11.74935973 163.9601322 4.12531806 163.97772432 20 164 C19.67 163.01 19.34 162.02 19 161 C18.89688623 158.98349787 18.85358923 156.96375861 18.84178162 154.94465637 C18.82709839 153.04528572 18.82709839 153.04528572 18.81211853 151.10754395 C18.80621434 149.70166053 18.80040389 148.29577673 18.79467773 146.88989258 C18.78509906 145.41163357 18.77508899 143.93337729 18.76467896 142.4551239 C18.73762264 138.43891823 18.716617 134.42270079 18.69667697 130.40645432 C18.67482191 126.2103754 18.64743087 122.01433275 18.62062073 117.81828308 C18.57068735 109.87105977 18.52575091 101.92381633 18.48259836 93.97655362 C18.43323151 84.92947385 18.37831133 75.88243049 18.32291877 66.83538592 C18.20908881 48.22362289 18.10298511 29.61182642 18 11 C1.5 11 -15 11 -32 11 C-31.67 9.68 -31.34 8.36 -31 7 C-26.05 6.67 -21.1 6.34 -16 6 C-15.67 5.01 -15.34 4.02 -15 3 C-10.05 3 -5.1 3 0 3 C0 2.01 0 1.02 0 0 Z " fill="#0495FD" transform="translate(128,111)"/>
<path d="M0 0 C1.23556641 0.01740234 1.23556641 0.01740234 2.49609375 0.03515625 C3.32238281 0.04417969 4.14867187 0.05320312 5 0.0625 C5.63808594 0.07410156 6.27617188 0.08570312 6.93359375 0.09765625 C6.95646327 33.18607477 6.97409358 66.27449125 6.98465908 99.36291587 C6.98590984 103.2658697 6.98720416 107.16882353 6.98852539 111.07177734 C6.98891886 112.23733017 6.98891886 112.23733017 6.98932027 113.42642953 C6.99367618 126.02187434 7.00156329 138.61731462 7.01074655 151.21275674 C7.02008528 164.12880785 7.02564983 177.04485657 7.02768224 189.96091092 C7.02905701 197.93615886 7.03340512 205.91139395 7.04151022 213.88663794 C7.04740177 219.99344981 7.04805215 226.10025054 7.04670143 232.20706558 C7.04697777 234.71859059 7.04898306 237.23011606 7.05279922 239.74163818 C7.05773599 243.15662434 7.05659207 246.57155443 7.05384827 249.98654175 C7.05821753 251.49527306 7.05821753 251.49527306 7.06267506 253.03448379 C7.06068401 253.94414874 7.05869296 254.85381368 7.05664158 255.79104424 C7.0570213 256.58010308 7.05740102 257.36916193 7.05779225 258.18213165 C6.93359375 260.09765625 6.93359375 260.09765625 5.93359375 262.09765625 C5.27359375 262.09765625 4.61359375 262.09765625 3.93359375 262.09765625 C3.93359375 261.43765625 3.93359375 260.77765625 3.93359375 260.09765625 C-128.39640625 260.09765625 -260.72640625 260.09765625 -397.06640625 260.09765625 C-397.69941695 256.29959206 -398.19139665 253.34525734 -398.18666077 249.63354683 C-398.18803512 248.79051919 -398.18940947 247.94749155 -398.19082546 247.07891762 C-398.1872305 246.16802404 -398.18363554 245.25713045 -398.17993164 244.31863403 C-398.1800805 243.33909944 -398.18022936 242.35956486 -398.18038273 241.3503474 C-398.17968874 238.07094531 -398.17184864 234.79159937 -398.1640625 231.51220703 C-398.16214317 229.15980053 -398.16067944 226.80739362 -398.15963745 224.45498657 C-398.15647644 219.3902422 -398.15020773 214.32551449 -398.14157104 209.26077652 C-398.12919681 201.92936005 -398.12293618 194.59794749 -398.11863768 187.26652275 C-398.11157373 175.35948094 -398.1007751 163.45244592 -398.08691406 151.54541016 C-398.08608625 150.8331541 -398.08525844 150.12089805 -398.08440554 149.38705848 C-398.07766226 143.60925738 -398.07073803 137.8314565 -398.06380272 132.05365562 C-398.05775081 127.00598536 -398.05177004 121.95831501 -398.04589844 116.91064453 C-398.04507031 116.19986516 -398.04424218 115.48908579 -398.04338896 114.75676765 C-398.02969234 102.89593089 -398.01993885 91.03509402 -398.01298809 79.17425144 C-398.00811487 71.21331839 -397.99814608 63.25240803 -397.98455811 55.29148507 C-397.97709603 50.33735845 -397.97378231 45.38323533 -397.97159195 40.42910385 C-397.96972067 38.13295024 -397.96612117 35.83679729 -397.96065903 33.54064941 C-397.95343287 30.40396526 -397.95240569 27.26733683 -397.95288086 24.13064575 C-397.9492859 23.22421361 -397.94569094 22.31778147 -397.94198704 21.38388169 C-397.95039013 16.1975265 -398.31624622 11.23098847 -399.06640625 6.09765625 C-395.49331346 3.87533593 -392.58006536 3.8539661 -388.42097092 3.86717796 C-387.416219 3.86624899 -387.416219 3.86624899 -386.39116907 3.86530125 C-384.13652978 3.86568395 -381.88221297 3.8804586 -379.62762451 3.89511108 C-377.99900244 3.89836841 -376.3703784 3.90074257 -374.74175382 3.90230715 C-370.25851207 3.90918075 -365.77539833 3.92862482 -361.29220581 3.950068 C-356.46062021 3.97099397 -351.62901084 3.9803383 -346.7973938 3.99107361 C-338.42366354 4.01127159 -330.04998343 4.03884317 -321.67629242 4.07139206 C-309.56927423 4.11844194 -297.46224318 4.15441934 -285.35518017 4.18767531 C-265.71332071 4.2419296 -246.0715008 4.30516588 -226.4296875 4.37402344 C-207.347018 4.44090165 -188.26434236 4.5035666 -169.18164062 4.56054688 C-167.41790258 4.56581554 -167.41790258 4.56581554 -165.61853346 4.57119064 C-159.71989213 4.58878509 -153.82125055 4.60629652 -147.92260885 4.62376666 C-98.97049706 4.7688567 -50.01844043 4.92851215 -1.06640625 5.09765625 C-1.06640625 4.10765625 -1.06640625 3.11765625 -1.06640625 2.09765625 C-1.72640625 1.76765625 -2.38640625 1.43765625 -3.06640625 1.09765625 C-2.06640625 0.09765625 -2.06640625 0.09765625 0 0 Z M-395.06640625 6.09765625 C-395.06640625 89.25765625 -395.06640625 172.41765625 -395.06640625 258.09765625 C-264.38640625 258.09765625 -133.70640625 258.09765625 0.93359375 258.09765625 C0.93359375 174.93765625 0.93359375 91.77765625 0.93359375 6.09765625 C-129.74640625 6.09765625 -260.42640625 6.09765625 -395.06640625 6.09765625 Z " fill="#3E537B" transform="translate(890.06640625,64.90234375)"/>
<path d="M0 0 C17.43841899 -0.12032643 17.43841899 -0.12032643 24.89648438 -0.14648438 C29.97690278 -0.16438782 35.0571583 -0.18552214 40.13745117 -0.22631836 C44.23529783 -0.2590177 48.33296971 -0.27687523 52.43093681 -0.28463173 C53.99097887 -0.29015632 55.55101183 -0.30094447 57.11097908 -0.31719017 C59.3034411 -0.33910575 61.49518945 -0.34196114 63.68774414 -0.34057617 C64.93350723 -0.34723801 66.17927032 -0.35389984 67.46278381 -0.36076355 C71.63809512 0.06507984 74.2730428 1.10179007 78 3 C81.29282979 7.32290322 80.3685801 13.25343274 80.375 18.4375 C80.39949219 19.47455078 80.42398438 20.51160156 80.44921875 21.58007812 C80.4784916 29.1763836 80.4784916 29.1763836 78.1640625 33.16015625 C74.30401077 36.44189698 70.84590907 36.12193788 65.95825195 36.11352539 C64.88957886 36.11374443 64.88957886 36.11374443 63.79931641 36.1139679 C61.445607 36.11327151 59.09197683 36.10549192 56.73828125 36.09765625 C55.10589135 36.0957911 53.47350089 36.09436765 51.84111023 36.09336853 C47.54538425 36.08955101 43.24969211 36.07972724 38.95397949 36.06866455 C33.79944304 36.05663516 28.64489528 36.05204454 23.49034882 36.04621124 C15.66020902 36.0365151 7.83014344 36.01735319 0 36 C0 24.12 0 12.24 0 0 Z " fill="#FCFDFD" transform="translate(573,204)"/>
<path d="M0 0 C17.97765965 -0.16043524 17.97765965 -0.16043524 25.65625 -0.1953125 C30.890465 -0.21919992 36.12439941 -0.24742183 41.35839844 -0.30175781 C45.57944687 -0.34530247 49.80019429 -0.3691553 54.02145004 -0.37950897 C55.62978731 -0.38688494 57.23810859 -0.40128867 58.84631729 -0.42292023 C61.10379547 -0.45207012 63.36003889 -0.45595137 65.61767578 -0.45410156 C67.54294601 -0.46742523 67.54294601 -0.46742523 69.5071106 -0.48101807 C73.88933969 0.12247409 76.86663834 1.86663834 80 5 C80.30743828 8.40768826 80.27843776 11.83015122 80.3125 15.25 C80.35600586 16.68279297 80.35600586 16.68279297 80.40039062 18.14453125 C80.43995211 22.52064047 80.42754351 25.2487315 78.23046875 29.109375 C74.17178391 32.54966127 70.12373404 32.12259394 64.93652344 32.11352539 C63.88226166 32.11374443 63.88226166 32.11374443 62.80670166 32.1139679 C60.49089437 32.11327299 58.17516819 32.10550038 55.859375 32.09765625 C54.25083459 32.09579057 52.64229362 32.09436737 51.03375244 32.09336853 C46.80544458 32.08955516 42.57717121 32.07973495 38.34887695 32.06866455 C33.27274285 32.05662393 28.19659719 32.05204257 23.12045288 32.04621124 C15.41361129 32.03652257 7.70684533 32.01735776 0 32 C0 21.44 0 10.88 0 0 Z " fill="#F6F8F9" transform="translate(572,158)"/>
<path d="M0 0 C0.86753906 -0.01611328 1.73507813 -0.03222656 2.62890625 -0.04882812 C3.46292969 -0.04947266 4.29695313 -0.05011719 5.15625 -0.05078125 C5.91744141 -0.05376221 6.67863281 -0.05674316 7.46289062 -0.05981445 C10.05877466 0.41462504 10.93695671 1.21329474 12.5 3.3125 C12.86328125 6.5625 12.86328125 6.5625 12.8125 10.3125 C12.80863281 11.55 12.80476563 12.7875 12.80078125 14.0625 C12.5 17.3125 12.5 17.3125 10.5 20.3125 C11.16 20.9725 11.82 21.6325 12.5 22.3125 C12.74723816 24.82170105 12.74723816 24.82170105 12.74291992 28.02807617 C12.74753487 29.82585762 12.74753487 29.82585762 12.75224304 31.65995789 C12.74505753 32.96197647 12.73787201 34.26399506 12.73046875 35.60546875 C12.72927626 36.9534755 12.72882393 38.3014831 12.7290802 39.64949036 C12.72751417 42.48000263 12.7192204 45.31038865 12.70581055 48.14086914 C12.68890184 51.75427025 12.68499393 55.3675315 12.68575573 58.98096752 C12.68548246 61.7683697 12.67997487 64.55574181 12.67275429 67.34313393 C12.66805582 69.31885538 12.66629842 71.29458314 12.66459656 73.27030945 C12.63424266 79.04758904 12.55942803 84.62540582 11.5 90.3125 C10.015 90.8075 10.015 90.8075 8.5 91.3125 C8.5 92.3025 8.5 93.2925 8.5 94.3125 C7.530625 94.786875 6.56125 95.26125 5.5625 95.75 C2.69522563 97.01443947 2.69522563 97.01443947 1.5 98.3125 C-6.16499677 99.4817368 -13.75996896 99.41159001 -21.5 99.3125 C-21.87516565 92.78183875 -22.22927683 84.96621414 -18.5 79.3125 C-16.18505761 78.58453665 -13.85114207 77.91334928 -11.5 77.3125 C-11.35704418 69.98015367 -11.21468936 62.64779584 -11.07275391 55.31542969 C-11.02439008 52.82063533 -10.97588828 50.32584364 -10.92724609 47.83105469 C-10.85738498 44.24675172 -10.7880188 40.66243946 -10.71875 37.078125 C-10.69687622 35.96133362 -10.67500244 34.84454224 -10.65246582 33.69390869 C-10.63244507 32.65313171 -10.61242432 31.61235474 -10.59179688 30.54003906 C-10.57403198 29.62514709 -10.55626709 28.71025513 -10.53796387 27.76763916 C-10.50469529 25.6161461 -10.5 23.46425027 -10.5 21.3125 C-11.16 20.6525 -11.82 19.9925 -12.5 19.3125 C-12.72507384 16.43623171 -12.82430406 13.68796976 -12.8125 10.8125 C-12.82861328 10.02746094 -12.84472656 9.24242187 -12.86132812 8.43359375 C-12.86328125 6.15625 -12.86328125 6.15625 -12.5 2.3125 C-8.32856144 -0.46845904 -4.90037332 -0.01820347 0 0 Z " fill="#0A95FA" transform="translate(52.5,164.6875)"/>
<path d="M0 0 C6.6 0 13.2 0 20 0 C20 37.29 20 74.58 20 113 C13.4 113 6.8 113 0 113 C0 75.71 0 38.42 0 0 Z " fill="#F7F9FB" transform="translate(187,143)"/>
<path d="M0 0 C266.97 0 533.94 0 809 0 C809 87.78 809 175.56 809 266 C542.03 266 275.06 266 0 266 C0 252.47 0 238.94 0 225 C0.33 225 0.66 225 1 225 C3.13999523 237.83997137 2.60572393 250.98888972 3 264 C268.65 264 534.3 264 808 264 C808 177.21 808 90.42 808 1 C542.02 1 276.04 1 2 1 C2 14.86 2 28.72 2 43 C1.01 43.495 1.01 43.495 0 44 C0 29.48 0 14.96 0 0 Z " fill="#35476A" transform="translate(89,64)"/>
<path d="M0 0 C2.93600584 2.72957099 4.91376515 5.28976774 6.77734375 8.83203125 C7.28483154 9.78480957 7.79231934 10.73758789 8.31518555 11.71923828 C8.85054932 12.74001465 9.38591309 13.76079102 9.9375 14.8125 C15.07702501 24.47986012 20.36852822 34.03943247 25.86108398 43.51098633 C26.37485596 44.40712646 26.88862793 45.3032666 27.41796875 46.2265625 C27.86938232 47.00596191 28.3207959 47.78536133 28.78588867 48.58837891 C30 51 30 51 32 57 C11.54 57 -8.92 57 -30 57 C-29.0245067 53.0980268 -27.71863284 50.34676938 -25.82421875 46.8203125 C-25.50262787 46.2189296 -25.18103699 45.61754669 -24.84970093 44.99794006 C-23.80002154 43.03790272 -22.74394937 41.08139544 -21.6875 39.125 C-20.96317351 37.77660258 -20.23913571 36.42805004 -19.51538086 35.0793457 C-17.35038834 31.04921236 -15.175963 27.02421766 -13 23 C-12.36162462 21.81788677 -11.72327695 20.63575857 -11.08496094 19.45361328 C-9.41432513 16.36298286 -7.73991986 13.27445288 -6.0625 10.1875 C-5.56129639 9.26404785 -5.06009277 8.3405957 -4.54370117 7.38916016 C-4.08713135 6.55304199 -3.63056152 5.71692383 -3.16015625 4.85546875 C-2.76449463 4.12996826 -2.36883301 3.40446777 -1.96118164 2.65698242 C-1 1 -1 1 0 0 Z " fill="#F9FAFC" transform="translate(778,157)"/>
<path d="M0 0 C1.20827009 0.0037972 2.41654018 0.00759441 3.66142452 0.01150668 C4.67284514 0.0105777 4.67284514 0.0105777 5.7046985 0.00962996 C7.98650159 0.0100143 10.26799037 0.02481801 12.54974353 0.0394398 C14.19313871 0.0426954 15.83653584 0.04507047 17.4799335 0.04663587 C22.01329928 0.05352342 26.54653926 0.07298002 31.07985651 0.09439671 C35.96192112 0.11529116 40.84400902 0.12466046 45.72610462 0.13540232 C54.19045004 0.15561624 62.65474606 0.18319441 71.11905277 0.21572077 C83.35713958 0.26273833 95.59523908 0.29873286 107.83337007 0.33200403 C127.68708809 0.38628013 147.5407671 0.44951832 167.39443958 0.51835215 C186.68479154 0.58521382 205.97514958 0.64787974 225.26553333 0.70487559 C226.45383212 0.70838803 227.64213091 0.71190047 228.86643876 0.71551935 C234.82755765 0.7331136 240.78867678 0.75062507 246.74979603 0.76809537 C296.23311278 0.91322374 345.71637514 1.07287965 395.19961536 1.24198496 C395.19961536 1.57198496 395.19961536 1.90198496 395.19961536 2.24198496 C264.51961536 2.24198496 133.83961536 2.24198496 -0.80038464 2.24198496 C-0.80038464 85.40198496 -0.80038464 168.56198496 -0.80038464 254.24198496 C129.87961536 254.24198496 260.55961536 254.24198496 395.19961536 254.24198496 C395.19961536 254.57198496 395.19961536 254.90198496 395.19961536 255.24198496 C198.18961536 255.73698496 198.18961536 255.73698496 -2.80038464 256.24198496 C-3.43339534 252.44392078 -3.92537504 249.48958606 -3.92063916 245.77787554 C-3.92201351 244.9348479 -3.92338786 244.09182027 -3.92480385 243.22324634 C-3.92120889 242.31235275 -3.91761393 241.40145917 -3.91391003 240.46296275 C-3.91405889 239.48342816 -3.91420775 238.50389357 -3.91436112 237.49467611 C-3.91366713 234.21527403 -3.90582703 230.93592809 -3.89804089 227.65653574 C-3.89612156 225.30412925 -3.89465783 222.95172234 -3.89361584 220.59931529 C-3.89045483 215.53457091 -3.88418612 210.4698432 -3.87554944 205.40510523 C-3.8631752 198.07368876 -3.85691457 190.7422762 -3.85261607 183.41085146 C-3.84555212 171.50380965 -3.8347535 159.59677463 -3.82089245 147.68973887 C-3.82006464 146.97748282 -3.81923683 146.26522676 -3.81838393 145.53138719 C-3.81164065 139.75358609 -3.80471642 133.97578521 -3.79778111 128.19798434 C-3.7917292 123.15031407 -3.78574843 118.10264373 -3.77987683 113.05497324 C-3.7790487 112.34419387 -3.77822057 111.6334145 -3.77736735 110.90109636 C-3.76367073 99.0402596 -3.75391724 87.17942273 -3.74696648 75.31858015 C-3.74209326 67.3576471 -3.73212447 59.39673674 -3.7185365 51.43581378 C-3.71107442 46.48168717 -3.7077607 41.52756405 -3.70557034 36.57343256 C-3.70369906 34.27727896 -3.70009956 31.981126 -3.69463742 29.68497813 C-3.68741126 26.54829398 -3.68638408 23.41166555 -3.68685925 20.27497447 C-3.68326429 19.36854232 -3.67966933 18.46211018 -3.67596543 17.5282104 C-3.68245205 13.52469319 -3.82867066 9.70110494 -4.43247998 5.73992312 C-4.55388852 4.58560353 -4.67529706 3.43128394 -4.80038464 2.24198496 C-2.80038464 0.24198496 -2.80038464 0.24198496 0 0 Z " fill="#52607D" transform="translate(495.80038464069366,68.75801503658295)"/>
<path d="M0 0 C0 58.74 0 117.48 0 178 C-50.82 178 -101.64 178 -154 178 C-154 119.26 -154 60.52 -154 0 C-102.18626835 -0.82244018 -51.86288411 -0.73046316 0 0 Z M-67 2 C-95.05 2 -123.1 2 -152 2 C-152 59.75 -152 117.5 -152 177 C-102.17 177 -52.34 177 -1 177 C-1 118.92 -1 60.84 -1 1 C-23.00252511 1 -45.00645002 1.37161286 -67 2 Z " fill="#2491E8" transform="translate(160,110)"/>
<path d="M0 0 C0.66 0 1.32 0 2 0 C2.33 2.31 2.66 4.62 3 7 C4.134375 6.525625 5.26875 6.05125 6.4375 5.5625 C13.6814694 3.09349435 21.42091677 3.25234605 29 3 C23.17436002 6.88375999 17.30554658 7.77015011 10.53125 8.85546875 C8.67575877 9.17502557 6.83557494 9.58091896 5 10 C3.69751166 12.60497668 3.86045491 14.52318916 3.84178162 17.44155884 C3.8319928 18.59704727 3.82220398 19.75253571 3.81211853 20.94303894 C3.80636307 22.21689957 3.8006076 23.49076019 3.79467773 24.80322266 C3.78510131 26.15325726 3.77509137 27.50328885 3.76467896 28.85331726 C3.73759821 32.5245501 3.71660585 36.19579584 3.69667697 39.86707354 C3.67483693 43.70147596 3.64743856 47.53583848 3.62062073 51.37020874 C3.57066699 58.63393522 3.52573813 65.89768381 3.48259836 73.1614536 C3.43324888 81.42980911 3.37832228 89.69812459 3.32291877 97.96644139 C3.20905757 114.97759062 3.10222756 131.98877697 3 149 C4.06920937 148.99666908 4.06920937 148.99666908 5.16001892 148.99327087 C12.19129299 148.97244473 19.22255488 148.95763629 26.25385189 148.94818783 C29.86073651 148.943166 33.467594 148.93649812 37.07446289 148.92456055 C67.06615979 148.83346552 97.00027709 149.47368907 127 150 C127 101.16 127 52.32 127 2 C127.33 2 127.66 2 128 2 C128.33 51.17 128.66 100.34 129 151 C125.5937456 151.8515636 123.25758378 152.115483 119.81819153 152.08901978 C118.24707863 152.08062828 118.24707863 152.08062828 116.64422607 152.07206726 C115.50068665 152.06069229 114.35714722 152.04931732 113.17895508 152.03759766 C111.97053452 152.02959641 110.76211395 152.02159515 109.51707458 152.01335144 C106.20737759 151.99025394 102.89778465 151.96251514 99.58814836 151.93239641 C96.12663553 151.90171743 92.66508454 151.87610703 89.20353699 151.84970093 C83.39387561 151.80454165 77.58426268 151.75506016 71.7746582 151.703125 C65.05020899 151.64307464 58.32573162 151.59032339 51.60119325 151.54135668 C45.13731943 151.49408348 38.67350217 151.44124661 32.209692 151.38599777 C29.45572703 151.36258332 26.70175724 151.34121758 23.94776344 151.32149124 C20.10940472 151.29373608 16.27114542 151.25789703 12.43286133 151.22119141 C11.28324921 151.2138649 10.13363708 151.20653839 8.94918823 151.19898987 C7.91023911 151.18775589 6.87128998 151.17652191 5.80085754 151.16494751 C4.43840518 151.15332046 4.43840518 151.15332046 3.04842854 151.14145851 C1 151 1 151 0 150 C-0.09662973 148.063717 -0.12187144 146.12385738 -0.12025452 144.18516541 C-0.12162918 142.92166763 -0.12300385 141.65816986 -0.12442017 140.35638428 C-0.12088055 138.94323707 -0.11724574 137.5300901 -0.11352539 136.11694336 C-0.11324353 134.63898216 -0.11340124 133.16102081 -0.1139679 131.68305969 C-0.1142559 127.65844172 -0.1083587 123.63385328 -0.10139394 119.6092422 C-0.09516088 115.40783635 -0.09455664 111.2064299 -0.09336853 107.00502014 C-0.09025507 99.04353743 -0.08204149 91.08206838 -0.07201904 83.1205917 C-0.06085836 74.05907411 -0.05534757 64.99755588 -0.05032361 55.93603313 C-0.03985888 37.290681 -0.02225916 18.64534159 0 0 Z " fill="#3193E5" transform="translate(19,124)"/>
<path d="M0 0 C0.66 0.33 1.32 0.66 2 1 C2.99391315 5.24431821 3.11542342 9.33233074 3.08901978 13.67703247 C3.08649621 14.32297706 3.08397265 14.96892164 3.08137262 15.6344403 C3.07170032 17.78515914 3.05465899 19.93575384 3.03759766 22.08642578 C3.02908415 23.63432081 3.02101356 25.18221832 3.01335144 26.7301178 C2.99119956 30.92675491 2.962513 35.12332393 2.93239641 39.31991053 C2.90165176 43.72252135 2.87607479 48.12516274 2.84970093 52.52780151 C2.80453422 59.9270905 2.75507299 67.32634166 2.703125 74.72558594 C2.64329148 83.25622562 2.59045177 91.78688691 2.54135668 100.31759465 C2.49382525 108.54448095 2.44104252 116.77132594 2.38599777 124.99816513 C2.36275054 128.48826155 2.34135209 131.97836187 2.32149124 135.46847916 C2.29781331 139.59056898 2.2695131 143.71260299 2.23780251 147.8346386 C2.22695019 149.33894615 2.21762906 150.84326575 2.21003914 152.34759331 C2.18648608 156.90006573 2.11514842 161.44869348 2 166 C1.96977816 167.75335978 1.96977816 167.75335978 1.93894577 169.54214096 C1.89265659 170.61852955 1.84636742 171.69491814 1.79867554 172.80392456 C1.76586676 173.73973295 1.73305798 174.67554134 1.69925499 175.63970757 C1 178 1 178 -1.39635277 179.83378792 C-4.43958344 181.19689592 -5.65128048 181.08396524 -8.8125 180.1875 C-9.60269531 179.97480469 -10.39289063 179.76210938 -11.20703125 179.54296875 C-11.79871094 179.36378906 -12.39039063 179.18460938 -13 179 C-13 178.34 -13 177.68 -13 177 C-14.7015625 176.814375 -14.7015625 176.814375 -16.4375 176.625 C-20.20797225 176.15534468 -23.84870215 175.40285859 -27.546875 174.54296875 C-32.00437819 173.55635578 -36.50416658 172.78992213 -41 172 C-41 171.01 -41 170.02 -41 169 C-46.94 168.67 -52.88 168.34 -59 168 C-59 167.67 -59 167.34 -59 167 C-39.53 167 -20.06 167 0 167 C0 111.89 0 56.78 0 0 Z " fill="#193C72" transform="translate(161,122)"/>
<path d="M0 0 C0.86753906 -0.01611328 1.73507813 -0.03222656 2.62890625 -0.04882812 C3.46292969 -0.04947266 4.29695313 -0.05011719 5.15625 -0.05078125 C5.91744141 -0.05376221 6.67863281 -0.05674316 7.46289062 -0.05981445 C10.05877466 0.41462504 10.93695671 1.21329474 12.5 3.3125 C12.86328125 6.5625 12.86328125 6.5625 12.8125 10.3125 C12.80863281 11.55 12.80476563 12.7875 12.80078125 14.0625 C12.5 17.3125 12.5 17.3125 10.5 20.3125 C11.16 20.9725 11.82 21.6325 12.5 22.3125 C12.74723816 24.82170105 12.74723816 24.82170105 12.74291992 28.02807617 C12.74599655 29.22659714 12.74907318 30.4251181 12.75224304 31.65995789 C12.74505753 32.96197647 12.73787201 34.26399506 12.73046875 35.60546875 C12.72927626 36.9534755 12.72882393 38.3014831 12.7290802 39.64949036 C12.72751417 42.48000263 12.7192204 45.31038865 12.70581055 48.14086914 C12.68890184 51.75427025 12.68499393 55.3675315 12.68575573 58.98096752 C12.68548246 61.7683697 12.67997487 64.55574181 12.67275429 67.34313393 C12.66805582 69.31885538 12.66629842 71.29458314 12.66459656 73.27030945 C12.63424266 79.04758904 12.55942803 84.62540582 11.5 90.3125 C10.015 90.8075 10.015 90.8075 8.5 91.3125 C8.5 92.3025 8.5 93.2925 8.5 94.3125 C4.8321148 96.27439209 1.62751449 97.70551257 -2.5 98.3125 C-1.5 96.3125 -1.5 96.3125 1.875 94.5 C5.27257449 92.62019444 6.90530772 90.94485464 8.5 87.3125 C9.41118376 83.58518855 9.64886619 80.06800827 9.70532227 76.23706055 C9.72526749 75.03619308 9.74521271 73.83532562 9.76576233 72.59806824 C9.78247482 71.31144791 9.79918732 70.02482758 9.81640625 68.69921875 C9.83699635 67.36114388 9.85799335 66.02307521 9.87937927 64.68501282 C9.93438775 61.17521206 9.98388994 57.66535468 10.03222656 54.15545654 C10.08259728 50.56908165 10.1382018 46.98278827 10.19335938 43.39648438 C10.30068103 36.3685604 10.40218293 29.34056321 10.5 22.3125 C9.94538086 22.32821045 9.39076172 22.3439209 8.81933594 22.36010742 C6.29632848 22.42262862 3.77348424 22.46154342 1.25 22.5 C0.37730469 22.52513672 -0.49539062 22.55027344 -1.39453125 22.57617188 C-7.81298361 22.6496656 -7.81298361 22.6496656 -11.07836914 21.04711914 C-13.53800111 18.04597108 -13.03251979 14.44351125 -12.9375 10.75 C-12.94458984 9.96947266 -12.95167969 9.18894531 -12.95898438 8.38476562 C-12.93359375 6.12109375 -12.93359375 6.12109375 -12.5 2.3125 C-8.32856144 -0.46845904 -4.90037332 -0.01820347 0 0 Z " fill="#D5ECFC" transform="translate(52.5,164.6875)"/>
<path d="M0 0 C15.51 0 31.02 0 47 0 C47 48.51 47 97.02 47 147 C46.01 147 45.02 147 44 147 C43.97660198 130.59669513 43.95898697 114.19339571 43.94818783 97.79007816 C43.94303952 90.17311608 43.93602481 82.55616439 43.92456055 74.93920898 C43.91456887 68.2974665 43.90813592 61.65573155 43.90591151 55.01398176 C43.904612 51.49979592 43.90157448 47.98563162 43.89426994 44.47145271 C43.88616689 40.5409417 43.88601174 36.61045142 43.88647461 32.67993164 C43.88287933 31.52474533 43.87928406 30.36955902 43.87557983 29.17936707 C43.88339532 23.03364671 44.18987458 17.09355863 45 11 C44.01 10.67 43.02 10.34 42 10 C42 9.34 42 8.68 42 8 C28.04756653 5.05644864 14.20943629 2.30953539 0 1 C0 0.67 0 0.34 0 0 Z " fill="#193A6B" transform="translate(98,125)"/>
<path d="M0 0 C0.33 0 0.66 0 1 0 C1 59.07 1 118.14 1 179 C-49.375 179.4375 -49.375 179.4375 -65.29833984 179.56811523 C-69.9965424 179.61135448 -69.9965424 179.61135448 -74.69473267 179.65589905 C-76.792129 179.67515728 -78.88954373 179.69247043 -80.98696899 179.70826721 C-84.15852768 179.7325276 -87.32997377 179.76290264 -90.50146484 179.79467773 C-91.44047323 179.80044799 -92.37948162 179.80621824 -93.34694481 179.81216335 C-94.19774935 179.82193738 -95.04855389 179.83171141 -95.92514038 179.84178162 C-96.66810553 179.84823417 -97.41107067 179.85468672 -98.17654991 179.8613348 C-100.09899634 179.89195454 -100.09899634 179.89195454 -102 181 C-104.46070627 181.1585658 -106.91193361 181.27714672 -109.375 181.375 C-115.53642414 181.6844496 -121.14200234 182.56470614 -127.1015625 184.23828125 C-131.22349858 185.32153938 -135.39012558 185.94025501 -139.6015625 186.5703125 C-142.00360714 186.88410489 -142.00360714 186.88410489 -144 188 C-146.6723621 188.13415472 -149.32250488 188.04318541 -152 188 C-152.99 183.05 -152.99 183.05 -154 178 C-103.18 178 -52.36 178 0 178 C0 119.26 0 60.52 0 0 Z " fill="#2364A8" transform="translate(160,110)"/>
<path d="M0 0 C0.33 0 0.66 0 1 0 C1.00423194 0.84722342 1.00846388 1.69444685 1.01282406 2.56734371 C1.11621245 23.19986897 1.22486232 43.83236071 1.33933926 64.46482754 C1.39457349 74.4426045 1.44803914 84.42038504 1.49731445 94.39819336 C1.54027661 103.09672806 1.58658445 111.79523748 1.63687855 120.49373299 C1.66338284 125.09778252 1.68823297 129.70182736 1.70907402 134.3059063 C1.72876292 138.64376485 1.75294197 142.98157572 1.78049088 147.31939125 C1.78979682 148.90719607 1.79749479 150.4950113 1.80341911 152.08283234 C1.8330128 159.78046077 1.93216049 167.36384548 3 175 C3.98261307 174.80154984 3.98261307 174.80154984 4.9850769 174.59909058 C12.23117698 173.13769144 19.49271011 171.7649384 26.75976562 170.41210938 C27.65244141 170.24388672 28.54511719 170.07566406 29.46484375 169.90234375 C30.265271 169.75273193 31.06569824 169.60312012 31.89038086 169.44897461 C34.17447068 169.00396653 34.17447068 169.00396653 37 168 C40.42792492 167.74101721 43.84994315 167.55758845 47.28320312 167.39453125 C51.27142972 167.25968513 51.27142972 167.25968513 55 166 C57.71760108 165.92818179 60.40859388 165.90700494 63.125 165.9375 C63.87910156 165.94201172 64.63320312 165.94652344 65.41015625 165.95117188 C67.27347127 165.96296501 69.13674555 165.98090058 71 166 C71 166.33 71 166.66 71 167 C68.69 167.33 66.38 167.66 64 168 C64 168.33 64 168.66 64 169 C63.30438965 169.08040527 62.6087793 169.16081055 61.89208984 169.24365234 C58.71891976 169.61419911 55.54699219 169.99450728 52.375 170.375 C51.28058594 170.50132812 50.18617187 170.62765625 49.05859375 170.7578125 C43.79445867 171.39588948 38.98536146 172.10652137 34 174 C32.329375 174.2165625 32.329375 174.2165625 30.625 174.4375 C26.91495929 174.8658005 26.91495929 174.8658005 23.359375 176.515625 C18.73607237 178.29402342 14.532691 178.41356448 9.625 178.3125 C8.81933594 178.31572266 8.01367188 178.31894531 7.18359375 178.32226562 C1.26776469 178.26776469 1.26776469 178.26776469 -1 176 C-1.24888897 173.0236578 -1.24888897 173.0236578 -1.24723816 169.12254333 C-1.24965257 168.40691839 -1.25206699 167.69129344 -1.25455457 166.95398289 C-1.26021292 164.54401891 -1.25151254 162.13431751 -1.24291992 159.72436523 C-1.24399227 158.00157601 -1.24593024 156.27878713 -1.24867249 154.55599976 C-1.25353123 149.86814859 -1.24585263 145.18039222 -1.23571944 140.49255252 C-1.22695694 135.59627812 -1.22869603 130.70000684 -1.2290802 125.8037262 C-1.22814282 117.58113003 -1.21944845 109.35857071 -1.20581055 101.13598633 C-1.19007903 91.61565106 -1.18481258 82.09535614 -1.1855461 72.57500881 C-1.18615546 63.43295061 -1.18105876 54.29090563 -1.17275429 45.14885139 C-1.16921451 41.25052856 -1.16739005 37.3522104 -1.16686058 33.45388603 C-1.16585945 28.86816672 -1.15978176 24.28248158 -1.14969444 19.69677353 C-1.14676219 18.0088465 -1.14554553 16.32091554 -1.14612198 14.63298607 C-1.14660918 12.33877817 -1.1409917 10.04466745 -1.13371277 7.75047302 C-1.13203692 6.46348228 -1.13036108 5.17649153 -1.12863445 3.85050106 C-1 1 -1 1 0 0 Z " fill="#B2CBDF" transform="translate(5,123)"/>
<path d="M0 0 C0.33 0 0.66 0 1 0 C1.00634791 1.35147204 1.00634791 1.35147204 1.01282406 2.73024654 C1.11598193 24.62009049 1.22459705 46.50990136 1.33933926 68.39968777 C1.39469438 78.98527848 1.44818007 89.57087257 1.49731445 100.15649414 C1.54012831 109.37939878 1.58639913 118.60227836 1.63687855 127.82514435 C1.66350211 132.71174943 1.68835565 137.59834946 1.70907402 142.48498344 C1.72860582 147.07889897 1.75273902 151.67276671 1.78049088 156.26663971 C1.78987969 157.95778349 1.79754833 159.64893778 1.80341911 161.34009743 C1.81164934 163.63880749 1.82591698 165.93740061 1.84178162 168.23606873 C1.84823417 169.52565711 1.85468672 170.81524549 1.8613348 172.14391232 C1.67444043 174.89843532 1.67444043 174.89843532 3 176 C5.01594582 176.23427778 7.038474 176.41336124 9.0625 176.5625 C10.16722656 176.64628906 11.27195312 176.73007812 12.41015625 176.81640625 C13.26480469 176.87699219 14.11945312 176.93757812 15 177 C13 180 13 180 10.6875 180.546875 C9.800625 180.61390625 8.91375 180.6809375 8 180.75 C7.113125 180.82734375 6.22625 180.9046875 5.3125 180.984375 C3 181 3 181 1 180 C-1.97747693 170.59733938 -2.42758862 161.26639139 -2.35644531 151.47753906 C-2.35723889 150.08597688 -2.3593444 148.69441495 -2.36264038 147.30285645 C-2.36771692 143.56694999 -2.35435208 139.83132523 -2.33711338 136.09546375 C-2.32190542 132.15347368 -2.32324724 128.2114847 -2.32244873 124.26947021 C-2.31877125 117.64932554 -2.30388697 111.02928546 -2.28125 104.40917969 C-2.25243312 95.96570641 -2.24202671 87.52231734 -2.2375679 79.0788002 C-2.23355612 71.75597224 -2.22105827 64.43316186 -2.20722103 57.11034679 C-2.20316417 54.78804503 -2.20021737 52.46574384 -2.19742584 50.14344025 C-2.13674362 7.11211571 -2.13674362 7.11211571 0 0 Z " fill="#EFEFEF" transform="translate(3,124)"/>
<path d="M0 0 C0 0.33 0 0.66 0 1 C-0.63502441 1.08040527 -1.27004883 1.16081055 -1.92431641 1.24365234 C-4.82537786 1.61455223 -7.7251574 1.99469277 -10.625 2.375 C-11.62402344 2.50132813 -12.62304688 2.62765625 -13.65234375 2.7578125 C-18.6901132 3.42506673 -23.18605969 4.34252535 -28 6 C-31.73851554 6.66334316 -35.50954007 7.14219285 -39.27929688 7.59179688 C-40.04177734 7.70201172 -40.80425781 7.81222656 -41.58984375 7.92578125 C-42.26909912 8.01255127 -42.94835449 8.09932129 -43.64819336 8.1887207 C-47.38855844 9.47899717 -50.37825369 10.96690171 -53 14 C-54.02276366 17.70839741 -53.87526905 21.32068618 -53.77880859 25.14575195 C-53.77822449 26.27170273 -53.77764038 27.3976535 -53.77703857 28.557724 C-53.76705458 32.28555832 -53.70766679 36.01093107 -53.6484375 39.73828125 C-53.63282891 42.33837688 -53.62047689 44.93849393 -53.61123657 47.53862 C-53.5843148 53.69636922 -53.52261328 59.85323986 -53.44759142 66.01057166 C-53.33971551 74.9921327 -53.28455143 83.9740417 -53.22843361 92.95604992 C-53.18767997 99.4124136 -53.13916675 105.86844428 -53.06625366 112.32453918 C-52.94371527 124.26742178 -52.9518113 136.09493863 -54 148 C-54.66 148 -55.32 148 -56 148 C-56.04668826 130.18924098 -56.08197325 112.37849781 -56.10362434 94.56769085 C-56.11394382 86.29811751 -56.12801695 78.02858216 -56.15087891 69.7590332 C-56.17079227 62.55261533 -56.18371155 55.34622496 -56.18817699 48.13978034 C-56.19078786 44.32282947 -56.19693841 40.50595729 -56.21146011 36.6890316 C-56.22501162 33.09809861 -56.2292276 29.50727693 -56.22621536 25.9163208 C-56.22702992 23.96668582 -56.23780427 22.01706302 -56.24884033 20.06745911 C-56.246091 18.91059601 -56.24334167 17.75373291 -56.24050903 16.56181335 C-56.24235262 15.55429362 -56.24419621 14.54677389 -56.24609566 13.50872326 C-56 11 -56 11 -54 8 C-51.52925938 7.38305994 -49.19572018 6.93135591 -46.6875 6.5625 C-41.3715188 5.6900298 -36.3736813 4.59531481 -31.25 2.875 C-21.02332899 -0.42473868 -10.65285399 -0.1546382 0 0 Z " fill="#D3E0EC" transform="translate(78,125)"/>
<path d="M0 0 C9.57 0 19.14 0 29 0 C29 4.29 29 8.58 29 13 C19.43 13 9.86 13 0 13 C0 8.71 0 4.42 0 0 Z " fill="#EFF1F3" transform="translate(99,205)"/>
<path d="M0 0 C42.9 0.66 85.8 1.32 130 2 C130 2.33 130 2.66 130 3 C88.42 3 46.84 3 4 3 C4 46.56 4 90.12 4 135 C3.67 135 3.34 135 3 135 C2.67 92.43 2.34 49.86 2 6 C1.34 6 0.68 6 0 6 C0 4.02 0 2.04 0 0 Z " fill="#1992F2" transform="translate(15,121)"/>
<path d="M0 0 C6.6 0 13.2 0 20 0 C20 4.95 20 9.9 20 15 C12.90127326 16.18312112 6.19350723 17.28209832 -1 17 C-1.02699725 14.72923158 -1.04639453 12.45837179 -1.0625 10.1875 C-1.07990234 8.29064453 -1.07990234 8.29064453 -1.09765625 6.35546875 C-1 3 -1 3 0 0 Z " fill="#1594F2" transform="translate(43,167)"/>
<path d="M0 0 C0.99 0 1.98 0 3 0 C3 48.18 3 96.36 3 146 C2.34 146 1.68 146 1 146 C-0.3375569 143.32488621 -0.12286028 141.28932481 -0.12025452 138.29269409 C-0.12162918 137.07830658 -0.12300385 135.86391907 -0.12442017 134.61273193 C-0.1208808 133.25988745 -0.11724599 131.90704322 -0.11352539 130.55419922 C-0.11324344 129.13520306 -0.11340141 127.71620676 -0.1139679 126.29721069 C-0.11425555 122.43793537 -0.10836391 118.57869094 -0.10139394 114.71942282 C-0.09515516 110.68885548 -0.09455618 106.65828748 -0.09336853 102.62771606 C-0.09025677 94.99209327 -0.08204546 87.35648474 -0.07201904 79.72086823 C-0.06085311 71.02933259 -0.05534624 62.33779628 -0.05032361 53.64625525 C-0.03986272 35.76416207 -0.02226626 17.88208218 0 0 Z " fill="#0F91FA" transform="translate(147,128)"/>
<path d="M0 0 C6.6 0 13.2 0 20 0 C20.06803972 7.66755361 20.12296741 15.33499314 20.15543652 23.00277615 C20.17102777 26.56405886 20.19214455 30.12512258 20.22631836 33.6862793 C20.26544385 37.78957099 20.27976317 41.89263614 20.29296875 45.99609375 C20.30845261 47.26206894 20.32393646 48.52804413 20.33988953 49.8323822 C20.34145173 58.10943646 20.15731673 65.54198644 14.375 71.875 C5.78803176 77.28160963 -1.98169466 77.38477133 -12 77 C-12 73.7 -12 70.4 -12 67 C-11.67 67 -11.34 67 -11 67 C-11 68.65 -11 70.3 -11 72 C-8.31222198 72.0544207 -5.62556788 72.09387266 -2.9375 72.125 C-2.18533203 72.14175781 -1.43316406 72.15851563 -0.65820312 72.17578125 C4.28448259 72.21857507 8.35855239 71.76280043 13 70 C14.95811161 67.33483044 14.95811161 67.33483044 16 64 C16.34595215 63.04343506 16.6919043 62.08687012 17.04833984 61.10131836 C18.60429948 55.5483656 18.35844896 49.78992201 18.4140625 44.06640625 C18.43342865 42.83333237 18.4527948 41.60025848 18.4727478 40.32981873 C18.53232952 36.40744861 18.57884388 32.48504881 18.625 28.5625 C18.66213969 25.89645297 18.70225221 23.23046095 18.7421875 20.56445312 C18.83801372 14.04306736 18.92212419 7.52162383 19 1 C13.06 1 7.12 1 1 1 C1 18.49 1 35.98 1 54 C0.34 54 -0.32 54 -1 54 C-1.02531626 46.79175566 -1.04285262 39.58352275 -1.05493164 32.37524414 C-1.0599662 29.92211478 -1.06679424 27.46898843 -1.07543945 25.01586914 C-1.08754332 21.4936448 -1.09323703 17.97146006 -1.09765625 14.44921875 C-1.10281754 13.34913986 -1.10797882 12.24906097 -1.11329651 11.11564636 C-1.11340981 9.58439873 -1.11340981 9.58439873 -1.11352539 8.0222168 C-1.115746 7.12286911 -1.11796661 6.22352142 -1.12025452 5.29692078 C-1 3 -1 3 0 0 Z " fill="#5398D3" transform="translate(43,187)"/>
<path d="M0 0 C0.99 0.33 1.98 0.66 3 1 C2.67 48.52 2.34 96.04 2 145 C1.34 145.33 0.68 145.66 0 146 C0 97.82 0 49.64 0 0 Z " fill="#354667" transform="translate(89,126)"/>
<path d="M0 0 C18.81 0 37.62 0 57 0 C57 2.97 57 5.94 57 9 C53.20220529 9.94944868 52.22150209 10.04145525 48.6875 9.125 C45.86347382 8.43056733 43.20708254 7.89248577 40.3125 7.5 C37 7 37 7 34.328125 6.06640625 C30.39353105 4.80567368 26.50923734 4.0953089 22.4375 3.4375 C21.65262207 3.30819092 20.86774414 3.17888184 20.05908203 3.0456543 C13.38766184 1.9844463 6.74894675 1.34579409 0 1 C0 0.67 0 0.34 0 0 Z " fill="#071932" transform="translate(102,289)"/>
<path d="M0 0 C-5.82563998 3.88375999 -11.69445342 4.77015011 -18.46875 5.85546875 C-20.32424123 6.17502557 -22.16442506 6.58091896 -24 7 C-25.30248834 9.60497668 -25.13954509 11.52318916 -25.15821838 14.44155884 C-25.1680072 15.59704727 -25.17779602 16.75253571 -25.18788147 17.94303894 C-25.19363693 19.21689957 -25.1993924 20.49076019 -25.20532227 21.80322266 C-25.21489869 23.15325726 -25.22490863 24.50328885 -25.23532104 25.85331726 C-25.26240179 29.5245501 -25.28339415 33.19579584 -25.30332303 36.86707354 C-25.32516307 40.70147596 -25.35256144 44.53583848 -25.37937927 48.37020874 C-25.42933301 55.63393522 -25.47426187 62.89768381 -25.51740164 70.1614536 C-25.56675112 78.42980911 -25.62167772 86.69812459 -25.67708123 94.96644139 C-25.79094244 111.97759206 -25.89703613 128.98877935 -26 146 C-12.14 146 1.72 146 16 146 C16 146.33 16 146.66 16 147 C1.81 147 -12.38 147 -27 147 C-27.02255935 128.79807856 -27.04098639 110.59616842 -27.05181217 92.39423656 C-27.05697201 83.94307645 -27.06400878 75.49192563 -27.07543945 67.04077148 C-27.0853958 59.67614066 -27.0918557 52.31151657 -27.09408849 44.94687921 C-27.09539398 41.04611746 -27.09846963 37.14537496 -27.10573006 33.24461937 C-27.11250525 29.5749141 -27.11461389 25.90523606 -27.11310768 22.23552513 C-27.113515 20.2429609 -27.11890242 18.25039965 -27.12442017 16.25784302 C-27.1230455 15.07573746 -27.12167084 13.8936319 -27.12025452 12.67570496 C-27.12117631 11.64606219 -27.1220981 10.61641943 -27.12304783 9.55557537 C-27 7 -27 7 -26 4 C-18.35016125 -0.25192938 -8.51136408 -0.07765843 0 0 Z " fill="#8ABBE8" transform="translate(48,127)"/>
<path d="M0 0 C40.92 0 81.84 0 124 0 C124 0.33 124 0.66 124 1 C123.0732547 1.00586624 122.1465094 1.01173248 121.19168091 1.01777649 C112.28413724 1.07665579 103.37681955 1.14923329 94.46949959 1.23571491 C89.89456187 1.27968983 85.31969861 1.31908493 80.74462891 1.34643555 C62.11630956 1.46126939 43.56032944 1.75333996 24.9921875 3.35546875 C23.9432601 3.44209998 23.9432601 3.44209998 22.87314224 3.53048134 C14.92126866 4.20476839 7.52592133 5.28758929 0 8 C0 5.36 0 2.72 0 0 Z " fill="#2C6BA1" transform="translate(21,124)"/>
<path d="M0 0 C14.19 0 28.38 0 43 0 C43 0.66 43 1.32 43 2 C42.44957031 2.09796875 41.89914063 2.1959375 41.33203125 2.296875 C34.52804971 3.5205368 27.73184746 4.78657704 20.9375 6.0625 C19.99688721 6.2368457 19.05627441 6.41119141 18.0871582 6.59082031 C17.20116943 6.75807617 16.31518066 6.92533203 15.40234375 7.09765625 C14.60304443 7.24726807 13.80374512 7.39687988 12.98022461 7.55102539 C10.93923357 7.93106204 10.93923357 7.93106204 9 9 C6.3276379 9.13415472 3.67749512 9.04318541 1 9 C0 7 0 7 0 0 Z " fill="#445361" transform="translate(7,289)"/>
<path d="M0 0 C0.33 0 0.66 0 1 0 C1 4.29 1 8.58 1 13 C0.01 13.33 -0.98 13.66 -2 14 C-3.0659747 31.47592072 -3.10981985 48.91561925 -3.04459953 66.414711 C-3.02600624 71.42415199 -3.01663339 76.4335865 -3.00868225 81.4430542 C-2.98474106 95.66747108 -2.9483377 109.89184356 -2.90405273 124.11621094 C-2.87954075 132.01532223 -2.86216456 139.91441749 -2.85249335 147.8135612 C-2.84595505 152.79568806 -2.83041355 157.77768007 -2.80817592 162.75976038 C-2.79648423 165.84091773 -2.79308104 168.92204197 -2.79207802 172.0032196 C-2.78992399 173.4343587 -2.78431001 174.86549723 -2.7750473 176.29660797 C-2.76292824 178.24337779 -2.76418877 180.19021744 -2.76622009 182.13702393 C-2.76150649 183.77274794 -2.76150649 183.77274794 -2.75669765 185.44151688 C-3 188 -3 188 -5 190 C-5.09353554 167.74673347 -5.1640244 145.49349946 -5.20724869 123.24007607 C-5.22785396 112.90689132 -5.25593565 102.57382889 -5.30175781 92.24072266 C-5.34168788 83.23199866 -5.3674476 74.22336327 -5.37635398 65.21455324 C-5.38155827 60.44659031 -5.39374779 55.67888082 -5.42292023 50.9109993 C-5.45018688 46.41794738 -5.45842237 41.9252519 -5.45243073 37.43212509 C-5.45352595 35.78827219 -5.46141265 34.14440665 -5.4768219 32.50062561 C-5.54798217 24.51396548 -5.57417049 17.37722382 -1.93227768 10.04416466 C-0.43496277 6.76106747 -0.26472862 3.57383634 0 0 Z " fill="#F8F6F8" transform="translate(5,110)"/>
<path d="M0 0 C0.33 0 0.66 0 1 0 C1.00634791 1.35147204 1.00634791 1.35147204 1.01282406 2.73024654 C1.11598193 24.62009049 1.22459705 46.50990136 1.33933926 68.39968777 C1.39469438 78.98527848 1.44818007 89.57087257 1.49731445 100.15649414 C1.54012831 109.37939878 1.58639913 118.60227836 1.63687855 127.82514435 C1.66350211 132.71174943 1.68835565 137.59834946 1.70907402 142.48498344 C1.72860582 147.07889897 1.75273902 151.67276671 1.78049088 156.26663971 C1.78987969 157.95778349 1.79754833 159.64893778 1.80341911 161.34009743 C1.81164934 163.63880749 1.82591698 165.93740061 1.84178162 168.23606873 C1.84823417 169.52565711 1.85468672 170.81524549 1.8613348 172.14391232 C1.67444043 174.89843532 1.67444043 174.89843532 3 176 C5.01594582 176.23427778 7.038474 176.41336124 9.0625 176.5625 C10.16722656 176.64628906 11.27195312 176.73007812 12.41015625 176.81640625 C13.26480469 176.87699219 14.11945312 176.93757812 15 177 C13 180 13 180 10.6875 180.546875 C9.800625 180.61390625 8.91375 180.6809375 8 180.75 C7.113125 180.82734375 6.22625 180.9046875 5.3125 180.984375 C3 181 3 181 1 180 C-0.77084851 175.0657434 -1.24087394 170.86834127 -1.20254517 165.59046936 C-1.20017046 164.87803383 -1.19779576 164.1655983 -1.1953491 163.43157381 C-1.18499496 161.0623718 -1.1601318 158.69355344 -1.13525391 156.32446289 C-1.1248199 154.61902369 -1.11528614 152.91357879 -1.10658264 151.20812988 C-1.08047738 146.59082566 -1.04180913 141.97370267 -1.00085878 137.35650945 C-0.96016689 132.52657484 -0.93106539 127.69657062 -0.90072632 122.86656189 C-0.84155319 113.72586259 -0.77197973 104.58527332 -0.69865549 95.44467777 C-0.61566686 85.03606094 -0.54429407 74.62737456 -0.47388959 64.2186662 C-0.32883738 42.81234166 -0.16922192 21.40614621 0 0 Z " fill="#DEE3E3" transform="translate(3,124)"/>
<path d="M0 0 C0.33 0 0.66 0 1 0 C1.66 9.24 2.32 18.48 3 28 C30.06 28 57.12 28 85 28 C85 28.66 85 29.32 85 30 C56.95 30 28.9 30 0 30 C0 20.1 0 10.2 0 0 Z " fill="#394D6F" transform="translate(306,160)"/>
<path d="M0 0 C15.51 0 31.02 0 47 0 C47 8 47 8 46 10 C45.41734375 9.81824219 44.8346875 9.63648438 44.234375 9.44921875 C41.49606877 8.60964373 38.74930569 7.80279726 36 7 C35.17757812 6.74863281 34.35515625 6.49726563 33.5078125 6.23828125 C22.60122511 3.17990585 11.22464611 2.27032931 0 1 C0 0.67 0 0.34 0 0 Z " fill="#021F49" transform="translate(98,125)"/>
<path d="M0 0 C1.00618639 3.01855916 1.10169232 4.93334526 1.0534668 8.08227539 C1.0398259 9.11667252 1.026185 10.15106964 1.01213074 11.21681213 C0.99136978 12.33249069 0.97060883 13.44816925 0.94921875 14.59765625 C0.9303511 15.7428624 0.91148346 16.88806854 0.89204407 18.06797791 C0.85015342 20.48978545 0.80541518 22.91154516 0.75805664 25.33325195 C0.68772047 29.05084718 0.63346826 32.76845572 0.58007812 36.48632812 C0.53744244 38.83595556 0.49385498 41.18556596 0.44921875 43.53515625 C0.43453049 44.65285904 0.41984222 45.77056183 0.40470886 46.9221344 C0.38161148 47.95337936 0.3585141 48.98462433 0.3347168 50.04711914 C0.31837692 50.95740372 0.30203705 51.86768829 0.28520203 52.80555725 C0 55 0 55 -2 57 C-5.125 57.125 -5.125 57.125 -8 57 C-9.4597922 63.66118769 -10.41754805 70.20472727 -11 77 C-5.06 76.67 0.88 76.34 7 76 C6 78 6 78 4.390625 78.62109375 C1.15648557 79.13369428 -1.97727051 79.09280305 -5.25 79.0625 C-6.51328125 79.05347656 -7.7765625 79.04445313 -9.078125 79.03515625 C-10.52445313 79.01775391 -10.52445313 79.01775391 -12 79 C-13.60670684 75.78658631 -12.82510855 72.37041032 -12.5625 68.875 C-12.51029297 68.12089844 -12.45808594 67.36679688 -12.40429688 66.58984375 C-12.27454996 64.7262063 -12.13792512 62.86305004 -12 61 C-11.34 61 -10.68 61 -10 61 C-9.67 59.35 -9.34 57.7 -9 56 C-7.02 55.34 -5.04 54.68 -3 54 C-2.99191315 53.38247864 -2.98382629 52.76495728 -2.97549438 52.12872314 C-2.88947413 45.70474562 -2.78997143 39.28107757 -2.68261719 32.85742188 C-2.64432095 30.45968826 -2.60946924 28.06189707 -2.578125 25.6640625 C-2.53248895 22.21854058 -2.4744913 18.77341528 -2.4140625 15.328125 C-2.39673569 13.71855927 -2.39673569 13.71855927 -2.37905884 12.07647705 C-2.35918915 11.07574158 -2.33931946 10.0750061 -2.31884766 9.04394531 C-2.30552399 8.16458313 -2.29220032 7.28522095 -2.2784729 6.37921143 C-1.98228111 3.84861367 -1.27316946 2.18859079 0 0 Z " fill="#CCD9E5" transform="translate(42,187)"/>
<path d="M0 0 C27.06 0.33 54.12 0.66 82 1 C82 1.33 82 1.66 82 2 C65.14375023 3.13234577 48.30621403 3.1218083 31.42230225 3.06866455 C27.75419709 3.05825522 24.08608456 3.05383004 20.41796875 3.04882812 C13.27862843 3.03824756 6.13931714 3.02128417 -1 3 C-0.67 2.01 -0.34 1.02 0 0 Z " fill="#C2E8FA" transform="translate(7,107)"/>
<path d="M0 0 C36.3 0 72.6 0 110 0 C110 0.33 110 0.66 110 1 C83.93788494 3.70999869 83.93788494 3.70999869 72 3 C71.505 2.505 71.505 2.505 71 2 C68.79205589 1.87593185 66.58015514 1.82197722 64.36889648 1.79467773 C63.32992218 1.77982834 63.32992218 1.77982834 62.2699585 1.76467896 C59.97037221 1.7329797 57.67076523 1.70827349 55.37109375 1.68359375 C53.78067982 1.66303148 52.19027145 1.64203521 50.59986877 1.62062073 C46.40610237 1.56532491 42.21228605 1.5159489 38.01843262 1.46777344 C33.74206072 1.41761309 29.46576166 1.36189856 25.18945312 1.30664062 C16.79303027 1.19896726 8.39654662 1.09754284 0 1 C0 0.67 0 0.34 0 0 Z " fill="#0F92F6" transform="translate(24,275)"/>
<path d="M0 0 C1.00401855 -0.00459229 2.00803711 -0.00918457 3.04248047 -0.01391602 C8.47538043 -0.00232113 13.68758654 0.3254261 19.0625 1.125 C19.0625 1.785 19.0625 2.445 19.0625 3.125 C-4.3675 3.125 -27.7975 3.125 -51.9375 3.125 C-51.9375 2.795 -51.9375 2.465 -51.9375 2.125 C-47.39127604 1.41808913 -42.94893092 0.9613916 -38.3515625 0.80859375 C-36.47803101 0.74551025 -36.47803101 0.74551025 -34.56665039 0.68115234 C-33.23194798 0.64111888 -31.8972307 0.60157864 -30.5625 0.5625 C-29.54420609 0.53123016 -29.54420609 0.53123016 -28.50534058 0.49932861 C-19.00430144 0.21046025 -9.50587229 0.02376828 0 0 Z " fill="#195697" transform="translate(140.9375,106.875)"/>
<path d="M0 0 C0.66 0.33 1.32 0.66 2 1 C2.08114106 2.77007714 2.13925505 4.54122098 2.1875 6.3125 C2.23970703 7.79169922 2.23970703 7.79169922 2.29296875 9.30078125 C2 12 2 12 0.67578125 13.79296875 C-2.20060192 15.86476922 -3.92093943 16.00862479 -7.4375 15.625 C-11 15 -11 15 -12.91015625 14.45703125 C-16.13161731 13.75252481 -19.28335458 14.03518882 -22.5625 14.16015625 C-25.19218647 13.98737236 -26.74952195 13.32840718 -29 12 C-29 11.34 -29 10.68 -29 10 C-19.43 10 -9.86 10 0 10 C0 6.7 0 3.4 0 0 Z " fill="#283D64" transform="translate(128,208)"/>
<path d="M0 0 C0.99 0 1.98 0 3 0 C3.77017667 10.08075688 3.77017667 10.08075688 1.0625 13.3125 C-3.29421499 14.29053806 -6.7862385 13.27606285 -11 12 C-11 11.34 -11 10.68 -11 10 C-12.134375 9.87625 -13.26875 9.7525 -14.4375 9.625 C-18.20797225 9.15534468 -21.84870215 8.40285859 -25.546875 7.54296875 C-30.00437819 6.55635578 -34.50416658 5.78992213 -39 5 C-39 4.34 -39 3.68 -39 3 C-36.95775363 3.11514149 -34.91619841 3.24257326 -32.875 3.375 C-31.73804687 3.44460938 -30.60109375 3.51421875 -29.4296875 3.5859375 C-26.0232969 3.99718739 -23.23631986 4.89604135 -20 6 C-17.65383424 6.40378331 -15.2984474 6.75678429 -12.9375 7.0625 C-8.9226617 7.58996518 -4.96086893 8.15391647 -1 9 C-0.67 6.03 -0.34 3.06 0 0 Z " fill="#23365A" transform="translate(159,289)"/>
<path d="M0 0 C0.75410156 0.00451172 1.50820312 0.00902344 2.28515625 0.01367188 C4.14847127 0.02546501 6.01174555 0.04340058 7.875 0.0625 C7.875 0.3925 7.875 0.7225 7.875 1.0625 C5.565 1.3925 3.255 1.7225 0.875 2.0625 C0.875 2.3925 0.875 2.7225 0.875 3.0625 C0.17938965 3.14290527 -0.5162207 3.22331055 -1.23291016 3.30615234 C-4.40608024 3.67669911 -7.57800781 4.05700728 -10.75 4.4375 C-11.84441406 4.56382812 -12.93882813 4.69015625 -14.06640625 4.8203125 C-19.33054133 5.45838948 -24.13963854 6.16902137 -29.125 8.0625 C-30.795625 8.2790625 -30.795625 8.2790625 -32.5 8.5 C-35.45456481 8.95846695 -37.47947845 9.52115884 -40.1875 10.625 C-43.6127869 12.00045634 -46.40208484 12.34171864 -50.125 12.0625 C-50.125 11.4025 -50.125 10.7425 -50.125 10.0625 C-44.42542959 7.65114329 -39.08744348 6.43347846 -32.95703125 5.58984375 C-30.14531034 5.16830732 -30.14531034 5.16830732 -27.7421875 4.0703125 C-24.37127922 2.77226125 -21.00090113 2.39746957 -17.4375 2 C-0.08990683 -0.00100932 -0.08990683 -0.00100932 0 0 Z " fill="#D8DEE6" transform="translate(68.125,288.9375)"/>
<path d="M0 0 C0 0.33 0 0.66 0 1 C-0.63502441 1.08040527 -1.27004883 1.16081055 -1.92431641 1.24365234 C-4.82537786 1.61455223 -7.7251574 1.99469277 -10.625 2.375 C-11.62402344 2.50132813 -12.62304688 2.62765625 -13.65234375 2.7578125 C-14.62558594 2.88671875 -15.59882812 3.015625 -16.6015625 3.1484375 C-17.49182129 3.26364746 -18.38208008 3.37885742 -19.29931641 3.49755859 C-22.07755788 3.95035168 -22.07755788 3.95035168 -24.96337891 4.98852539 C-27.99067827 5.99689501 -30.83262214 6.56158336 -33.984375 7.03515625 C-35.08394531 7.20466797 -36.18351562 7.37417969 -37.31640625 7.54882812 C-38.44949219 7.71833984 -39.58257812 7.88785156 -40.75 8.0625 C-43.01607666 8.4045733 -45.28172802 8.74947995 -47.546875 9.09765625 C-48.54557617 9.24726807 -49.54427734 9.39687988 -50.57324219 9.55102539 C-52.99856016 9.88384917 -52.99856016 9.88384917 -55 11 C-54.67 10.01 -54.34 9.02 -54 8 C-52.99582031 7.82984375 -51.99164063 7.6596875 -50.95703125 7.484375 C-44.23544252 6.30569995 -37.74113481 5.03608255 -31.25 2.875 C-21.02332899 -0.42473868 -10.65285399 -0.1546382 0 0 Z " fill="#E2E3E3" transform="translate(78,125)"/>
<path d="M0 0 C6.6 0 13.2 0 20 0 C20 4.95 20 9.9 20 15 C12.90127326 16.18312112 6.19350723 17.28209832 -1 17 C-1 12.38 -1 7.76 -1 3 C-0.67 3 -0.34 3 0 3 C0.33 5.97 0.66 8.94 1 12 C6.94 12.33 12.88 12.66 19 13 C19 9.04 19 5.08 19 1 C12.73 1 6.46 1 0 1 C0 0.67 0 0.34 0 0 Z " fill="#5D99CA" transform="translate(43,167)"/>
<path d="M0 0 C0 3 0 3 -1 5 C-1.99 5 -2.98 5 -4 5 C-3.938125 6.1446875 -3.938125 6.1446875 -3.875 7.3125 C-4 10 -4 10 -6 13 C-5.34 13.33 -4.68 13.66 -4 14 C-4 14.66 -4 15.32 -4 16 C-3.34 16 -2.68 16 -2 16 C-2 16.66 -2 17.32 -2 18 C2.62 17.67 7.24 17.34 12 17 C12 17.33 12 17.66 12 18 C4.78621941 19.64364621 -2.76807212 19.56366008 -10 18 C-10.42694805 7.3262987 -10.42694805 7.3262987 -8 3 C-4.4375 1.6875 -4.4375 1.6875 -1 1 C-0.67 0.67 -0.34 0.34 0 0 Z " fill="#2B94E6" transform="translate(42,241)"/>
<path d="M0 0 C10.04584298 -0.36505755 19.31611839 0.32710673 29.1796875 2.265625 C33.45437319 3.08734372 37.66848948 3.60622632 42 4 C42 4.66 42 5.32 42 6 C45.96 6 49.92 6 54 6 C54 4.68 54 3.36 54 2 C54.99 2 55.98 2 57 2 C57 4.31 57 6.62 57 9 C53.86151395 10.00601584 51.8624155 9.9483351 48.6875 9.125 C45.86347382 8.43056733 43.20708254 7.89248577 40.3125 7.5 C37 7 37 7 34.328125 6.06640625 C30.39353105 4.80567368 26.50923734 4.0953089 22.4375 3.4375 C21.65262207 3.30819092 20.86774414 3.17888184 20.05908203 3.0456543 C13.38766184 1.9844463 6.74894675 1.34579409 0 1 C0 0.67 0 0.34 0 0 Z " fill="#112343" transform="translate(102,289)"/>
<path d="M0 0 C11.22 0 22.44 0 34 0 C30.88571405 2.07619063 29.80423212 2.30598229 26.2109375 2.5625 C25.26863281 2.63726562 24.32632813 2.71203125 23.35546875 2.7890625 C21.88013672 2.89347656 21.88013672 2.89347656 20.375 3 C13.39226367 3.50613122 6.80413487 4.31650271 0 6 C0 4.02 0 2.04 0 0 Z " fill="#415162" transform="translate(22,125)"/>
<path d="M0 0 C27.39 0 54.78 0 83 0 C83 0.33 83 0.66 83 1 C82.13197754 1.02505615 81.26395508 1.0501123 80.36962891 1.07592773 C77.15286837 1.17099484 73.93627151 1.27023203 70.71972656 1.37231445 C69.3268741 1.41565846 67.93396869 1.45733396 66.54101562 1.49731445 C64.54023349 1.55502932 62.53964141 1.61921869 60.5390625 1.68359375 C59.33459473 1.72025146 58.13012695 1.75690918 56.88916016 1.79467773 C54.06003633 1.81052987 54.06003633 1.81052987 52 3 C49.3276379 3.13415472 46.67749512 3.04318541 44 3 C44 2.34 44 1.68 44 1 C29.48 1 14.96 1 0 1 C0 0.67 0 0.34 0 0 Z " fill="#4B80AA" transform="translate(6,288)"/>
<path d="M0 0 C0.33 0 0.66 0 1 0 C1 1.65 1 3.3 1 5 C3.68777802 5.0544207 6.37443212 5.09387266 9.0625 5.125 C9.81466797 5.14175781 10.56683594 5.15851563 11.34179688 5.17578125 C16.31847716 5.21886939 20.26290713 4.5021493 25 3 C25.99 3 26.98 3 28 3 C20.51984355 9.99756571 12.61214013 10.32471423 2.74609375 10.10546875 C1.83988281 10.07066406 0.93367188 10.03585937 0 10 C0 6.7 0 3.4 0 0 Z " fill="#798A99" transform="translate(31,254)"/>
<path d="M0 0 C1.32 0 2.64 0 4 0 C4.33 1.65 4.66 3.3 5 5 C7.62538284 4.85946128 10.25017427 4.71281053 12.875 4.5625 C13.62136719 4.52318359 14.36773437 4.48386719 15.13671875 4.44335938 C19.19986864 4.28426376 19.19986864 4.28426376 23 3 C24.54023996 2.93049459 26.08334988 2.91547643 27.625 2.9375 C28.85089844 2.95103516 28.85089844 2.95103516 30.1015625 2.96484375 C31.04128906 2.98224609 31.04128906 2.98224609 32 3 C29.15964526 4.89356983 28.05459611 5.33421124 24.83984375 5.81640625 C23.6497168 6.00299805 23.6497168 6.00299805 22.43554688 6.19335938 C21.19901367 6.37608398 21.19901367 6.37608398 19.9375 6.5625 C18.30034436 6.81093996 16.66360061 7.06211409 15.02734375 7.31640625 C13.94054321 7.47798218 13.94054321 7.47798218 12.83178711 7.64282227 C10.91242024 7.93222006 10.91242024 7.93222006 9 9 C6.3276379 9.13415472 3.67749512 9.04318541 1 9 C-0.4783226 6.04335481 -0.06032783 3.25770263 0 0 Z " fill="#757678" transform="translate(7,289)"/>
<path d="M0 0 C0.33 0 0.66 0 1 0 C1.33 2.97 1.66 5.94 2 9 C3.42441406 8.71253906 4.84882813 8.42507813 6.31640625 8.12890625 C12.78707839 6.83431558 19.27238901 5.61979402 25.75976562 4.41210938 C26.65244141 4.24388672 27.54511719 4.07566406 28.46484375 3.90234375 C29.66548462 3.67792603 29.66548462 3.67792603 30.89038086 3.44897461 C33.17447068 3.00396653 33.17447068 3.00396653 36 2 C37.39439664 1.93334624 38.79169875 1.91461801 40.1875 1.9375 C42.0746875 1.9684375 42.0746875 1.9684375 44 2 C44 2.33 44 2.66 44 3 C43.34773438 3.12117188 42.69546875 3.24234375 42.0234375 3.3671875 C38.27150219 4.08658513 34.62834093 4.79055302 31 6 C27.58279369 7.13906877 24.19113753 7.82141065 20.65625 8.4921875 C18.88146045 8.8314855 17.11041966 9.19099813 15.34375 9.5703125 C6.53694818 11.45369482 6.53694818 11.45369482 2 11 C0 9 0 9 -0.1953125 6.8359375 C-0.17210937 6.02382813 -0.14890625 5.21171875 -0.125 4.375 C-0.10695313 3.55773437 -0.08890625 2.74046875 -0.0703125 1.8984375 C-0.04710937 1.27195312 -0.02390625 0.64546875 0 0 Z " fill="#A8A8AA" transform="translate(6,289)"/>
<path d="M0 0 C0.33 0 0.66 0 1 0 C1.0698181 7.53713598 1.12297162 15.074238 1.15543652 22.61162472 C1.17102599 26.11237531 1.19213941 29.61290302 1.22631836 33.11352539 C1.26545205 37.14731871 1.27976462 41.18088156 1.29296875 45.21484375 C1.30845261 46.45894516 1.32393646 47.70304657 1.33988953 48.98484802 C1.34123642 56.00214455 0.65273121 61.48596914 -2 68 C-2.66 68 -3.32 68 -4 68 C-3.50320203 65.26761114 -2.91180966 62.7497307 -1.98681641 60.12475586 C-0.39157058 54.56424948 -0.64171221 48.80650921 -0.5859375 43.06640625 C-0.56657135 41.83333237 -0.5472052 40.60025848 -0.5272522 39.32981873 C-0.46767048 35.40744861 -0.42115612 31.48504881 -0.375 27.5625 C-0.33786031 24.89645297 -0.29774779 22.23046095 -0.2578125 19.56445312 C-0.16198641 13.04307633 -0.0768765 6.52162623 0 0 Z " fill="#387DB3" transform="translate(62,188)"/>
<path d="M0 0 C7.92 0 15.84 0 24 0 C24 1.98 24 3.96 24 6 C15.92614962 4.62469483 7.96600635 2.89968355 0 1 C0 0.67 0 0.34 0 0 Z " fill="#091931" transform="translate(120,126)"/>
<path d="M0 0 C4.77428652 0.42126057 7.84137954 2.53354095 11 6 C15.76336308 12.5263016 15.48227016 19.20108286 15.25 27 C15.23195313 28.15628906 15.21390625 29.31257813 15.1953125 30.50390625 C15.1484876 33.33681275 15.08292012 36.16795884 15 39 C14.67 39 14.34 39 14 39 C14 31.08 14 23.16 14 15 C13.34 15 12.68 15 12 15 C12 13.68 12 12.36 12 11 C11.34 11 10.68 11 10 11 C9.34 9.02 8.68 7.04 8 5 C6.02 5.33 4.04 5.66 2 6 C1.34 4.02 0.68 2.04 0 0 Z " fill="#4C5D79" transform="translate(658,199)"/>
<path d="M0 0 C1.22329074 3.66987221 0.88021006 6.33967822 0.5625 10.1875 C0.46066406 11.45980469 0.35882813 12.73210937 0.25390625 14.04296875 C0.12822266 15.50669922 0.12822266 15.50669922 0 17 C0.95261719 16.855625 1.90523437 16.71125 2.88671875 16.5625 C4.14097656 16.376875 5.39523438 16.19125 6.6875 16 C8.54955078 15.7215625 8.54955078 15.7215625 10.44921875 15.4375 C13.35886371 15.07899589 16.07700022 14.91057744 19 15 C14.50749122 19.49250878 8.12980103 19.22891393 2.13671875 19.265625 C0 19 0 19 -2 17 C-2.265625 14.1015625 -2.265625 14.1015625 -2.25 10.625 C-2.25515625 9.48289063 -2.2603125 8.34078125 -2.265625 7.1640625 C-2.01510533 4.17993117 -1.55829924 2.51059322 0 0 Z " fill="#CCD6E4" transform="translate(42,167)"/>
<path d="M0 0 C-4.4912262 2.9941508 -8.6312237 4.26452276 -13.9375 5.125 C-14.93652344 5.29257813 -15.93554688 5.46015625 -16.96484375 5.6328125 C-20.00879502 6.00106401 -22.93713518 6.06390478 -26 6 C-26 5.34 -26 4.68 -26 4 C-17.50450571 0.58893032 -9.09628609 -0.08299531 0 0 Z " fill="#939395" transform="translate(48,127)"/>
<path d="M0 0 C9.24 0 18.48 0 28 0 C28 0.99 28 1.98 28 3 C18.49095101 3.32417212 9.38695104 2.33418593 0 1 C0 0.67 0 0.34 0 0 Z " fill="#17233B" transform="translate(99,218)"/>
<path d="M0 0 C0 3 0 3 -1 5 C3.29 5 7.58 5 12 5 C11.67 5.66 11.34 6.32 11 7 C8.28553021 7.31241455 5.66090639 7.51336592 2.9375 7.625 C2.17888672 7.66367187 1.42027344 7.70234375 0.63867188 7.7421875 C-1.24047195 7.83673562 -3.12020336 7.91946756 -5 8 C-5 7.34 -5 6.68 -5 6 C-5.66 5.67 -6.32 5.34 -7 5 C-2.25 1.125 -2.25 1.125 0 0 Z " fill="#1393F5" transform="translate(45,251)"/>
<path d="M0 0 C0 0.33 0 0.66 0 1 C-10.90945418 3.32644675 -21.88616817 3.61579502 -33 4 C-29.41286101 1.608574 -26.29836684 1.32114854 -22.125 0.875 C-21.37355713 0.79008301 -20.62211426 0.70516602 -19.84790039 0.61767578 C-13.21259101 -0.0809258 -6.67159511 -0.20884993 0 0 Z " fill="#C3CFDC" transform="translate(78,125)"/>
<path d="M0 0 C-2 2 -2 2 -5.125 2.4375 C-8.22893779 2.88807161 -10.24411138 3.40485093 -13.0625 4.5625 C-16.4877869 5.93795634 -19.27708484 6.27921864 -23 6 C-23 5.34 -23 4.68 -23 4 C-15.24909222 0.81659145 -8.37616562 -0.17450345 0 0 Z " fill="#E7E6E6" transform="translate(41,295)"/>
<path d="M0 0 C0.99 0.33 1.98 0.66 3 1 C4.41544949 5.24634846 3.92652486 9.13235427 3.6875 13.5625 C3.65205078 14.43841797 3.61660156 15.31433594 3.58007812 16.21679688 C3.53689453 17.05404297 3.49371094 17.89128906 3.44921875 18.75390625 C3.39254028 19.90354858 3.39254028 19.90354858 3.3347168 21.07641602 C3 23 3 23 1 25 C0.67 16.75 0.34 8.5 0 0 Z " fill="#3B4D6E" transform="translate(651,160)"/>
<path d="M0 0 C5.60411156 -0.13806322 10.69733858 0.28222146 16.1875 1.375 C16.87263672 1.50132812 17.55777344 1.62765625 18.26367188 1.7578125 C22.03742878 2.48423346 25.48962329 3.43225894 29 5 C29 5.99 29 6.98 29 8 C28.12601563 7.72736328 28.12601563 7.72736328 27.234375 7.44921875 C18.29907865 4.70962317 9.30840575 2.05777338 0 1 C0 0.67 0 0.34 0 0 Z " fill="#192B4A" transform="translate(115,127)"/>
<path d="M0 0 C9.77790574 -0.38767027 19.31756984 0.8070053 29 2 C29 2.33 29 2.66 29 3 C27.21128822 3.38885039 25.41887126 3.76069196 23.625 4.125 C22.62726563 4.33382813 21.62953125 4.54265625 20.6015625 4.7578125 C19.74304688 4.83773438 18.88453125 4.91765625 18 5 C17.34 4.34 16.68 3.68 16 3 C13.86232949 2.74951397 11.71265931 2.59588224 9.5625 2.5 C3.33233533 2.22155689 3.33233533 2.22155689 0 0 Z " fill="#1D3C69" transform="translate(91,289)"/>
<path d="M0 0 C1.04976108 3.41172352 1.45374142 6.44569217 1 10 C-0.9375 12 -0.9375 12 -4 13 C-7.09983215 12.64232706 -10.01722159 11.90328148 -13 11 C-13 10.34 -13 9.68 -13 9 C-14.32 8.67 -15.64 8.34 -17 8 C-12.64124269 7.83235549 -9.81010208 7.89787472 -6 10 C-4.68 10 -3.36 10 -2 10 C-1.93941406 9.36191406 -1.87882813 8.72382813 -1.81640625 8.06640625 C-1.73261719 7.24011719 -1.64882812 6.41382813 -1.5625 5.5625 C-1.48128906 4.73878906 -1.40007812 3.91507812 -1.31640625 3.06640625 C-1 1 -1 1 0 0 Z " fill="#223860" transform="translate(161,290)"/>
<path d="M0 0 C0.99 1.485 0.99 1.485 2 3 C6.10664829 8.43853422 8.7012215 10.37758896 15.3125 11.625 C16.199375 11.74875 17.08625 11.8725 18 12 C15 14 15 14 12.1875 13.75 C3.6097561 11.73170732 3.6097561 11.73170732 1.125 8.75 C-0.1495468 5.63444115 -0.23270058 3.33537497 0 0 Z " fill="#3E4F72" transform="translate(285,243)"/>
<path d="M0 0 C0.99 0.33 1.98 0.66 3 1 C2.67 1.33 2.34 1.66 2 2 C1.76807135 3.51469448 1.58784762 5.03754562 1.4375 6.5625 C1.35371094 7.38878906 1.26992187 8.21507812 1.18359375 9.06640625 C1.09271484 10.02353516 1.09271484 10.02353516 1 11 C-2.95367207 12.09824224 -4.44827985 11.88032243 -8 10 C-9.216875 9.835 -10.43375 9.67 -11.6875 9.5 C-12.780625 9.335 -13.87375 9.17 -15 9 C-15.33 8.34 -15.66 7.68 -16 7 C-5.44191344 7.96355353 -5.44191344 7.96355353 -1 9 C-0.67 6.03 -0.34 3.06 0 0 Z " fill="#1B2E50" transform="translate(159,289)"/>
<path d="M0 0 C0.67095703 0.61488281 0.67095703 0.61488281 1.35546875 1.2421875 C4.73744485 4.25640074 7.579668 6.66050545 12 8 C12 8.33 12 8.66 12 9 C5.25 11.125 5.25 11.125 3 10 C1.89453125 8.4765625 1.89453125 8.4765625 0.8125 6.625 C0.44769531 6.01914063 0.08289063 5.41328125 -0.29296875 4.7890625 C-1 3 -1 3 0 0 Z " fill="#3B4E72" transform="translate(291,197)"/>
<path d="M0 0 C0.33 0 0.66 0 1 0 C1.06058594 0.71027344 1.12117187 1.42054688 1.18359375 2.15234375 C1.26738281 3.07144531 1.35117188 3.99054688 1.4375 4.9375 C1.51871094 5.85402344 1.59992187 6.77054687 1.68359375 7.71484375 C1.76044976 9.96159732 1.76044976 9.96159732 3 11 C4.68608966 11.07205511 6.37500659 11.08386068 8.0625 11.0625 C8.98160156 11.05347656 9.90070312 11.04445313 10.84765625 11.03515625 C11.55792969 11.02355469 12.26820312 11.01195312 13 11 C13 11.66 13 12.32 13 13 C11.04196493 13.05389087 9.08351091 13.09274217 7.125 13.125 C6.03445312 13.14820313 4.94390625 13.17140625 3.8203125 13.1953125 C1 13 1 13 -1 11 C-1.23046875 8.90625 -1.23046875 8.90625 -1.1875 6.5 C-1.18105469 5.7059375 -1.17460938 4.911875 -1.16796875 4.09375 C-1 2 -1 2 0 0 Z " fill="#C5C6C8" transform="translate(5,288)"/>
<path d="M0 0 C1.65 0 3.3 0 5 0 C6.62950412 4.12168689 7.26264601 6.70700357 6 11 C0 3.28571429 0 3.28571429 0 0 Z " fill="#3A4D72" transform="translate(822,234)"/>
<path d="M0 0 C6.27 0.33 12.54 0.66 19 1 C17 3 17 3 13.3046875 3.1953125 C11.82799892 3.182009 10.35137642 3.15814835 8.875 3.125 C8.12089844 3.11597656 7.36679687 3.10695313 6.58984375 3.09765625 C4.72642746 3.0740687 2.86317407 3.03819719 1 3 C0.67 2.01 0.34 1.02 0 0 Z " fill="#5A595D" transform="translate(11,291)"/>
<path d="M0 0 C5.61 0 11.22 0 17 0 C12.9566353 2.02168235 10.67870655 2.35927761 6.25 2.625 C5.07953125 2.69976562 3.9090625 2.77453125 2.703125 2.8515625 C1.81109375 2.90054688 0.9190625 2.94953125 0 3 C0 2.01 0 1.02 0 0 Z " fill="#4D6885" transform="translate(43,181)"/>
<path d="M0 0 C0.6875 1.6875 0.6875 1.6875 1 4 C-0.3125 6.4375 -0.3125 6.4375 -2 9 C-2.69822617 10.65369357 -3.37498605 12.31727014 -4 14 C-4.99 13.67 -5.98 13.34 -7 13 C-6.02325896 11.01963514 -5.04354018 9.04073867 -4.0625 7.0625 C-3.51722656 5.96035156 -2.97195313 4.85820312 -2.41015625 3.72265625 C-1 1 -1 1 0 0 Z M0 6 C0.33 6.66 0.66 7.32 1 8 C0.34 7.67 -0.32 7.34 -1 7 C-0.67 6.67 -0.34 6.34 0 6 Z " fill="#3E5074" transform="translate(714,239)"/>
<path d="M0 0 C0.33 0.99 0.66 1.98 1 3 C-0.98 3 -2.96 3 -5 3 C-5.19335938 3.91523438 -5.38671875 4.83046875 -5.5859375 5.7734375 C-5.84632812 6.96195313 -6.10671875 8.15046875 -6.375 9.375 C-6.63023438 10.55835938 -6.88546875 11.74171875 -7.1484375 12.9609375 C-8 16 -8 16 -10 18 C-9.67 14.37 -9.34 10.74 -9 7 C-8.34 7 -7.68 7 -7 7 C-6.67 5.35 -6.34 3.7 -6 2 C-4.02 1.34 -2.04 0.68 0 0 Z " fill="#D7F0F7" transform="translate(39,241)"/>
<path d="M0 0 C0.99 0.66 1.98 1.32 3 2 C2.34 2 1.68 2 1 2 C0.87625 2.804375 0.7525 3.60875 0.625 4.4375 C0.41875 5.283125 0.2125 6.12875 0 7 C-0.99 7.495 -0.99 7.495 -2 8 C-3.12706706 10.11015954 -3.12706706 10.11015954 -4.125 12.5625 C-4.47820313 13.38878906 -4.83140625 14.21507812 -5.1953125 15.06640625 C-5.59363281 16.02353516 -5.59363281 16.02353516 -6 17 C-6.66 16.67 -7.32 16.34 -8 16 C-6.57250019 12.20950293 -4.83763458 8.72877544 -2.875 5.1875 C-2.33617187 4.21167969 -1.79734375 3.23585937 -1.2421875 2.23046875 C-0.83226562 1.49441406 -0.42234375 0.75835937 0 0 Z " fill="#425375" transform="translate(725,219)"/>
<path d="M0 0 C0.99 0.33 1.98 0.66 3 1 C2.6875 2.9375 2.6875 2.9375 2 5 C1.01 5.33 0.02 5.66 -1 6 C-0.67 6.99 -0.34 7.98 0 9 C-1.32 9.99 -2.64 10.98 -4 12 C-5 9 -5 9 -4.00390625 6.73828125 C-3.52824219 5.93777344 -3.05257812 5.13726562 -2.5625 4.3125 C-2.08941406 3.50425781 -1.61632812 2.69601563 -1.12890625 1.86328125 C-0.75636719 1.24839844 -0.38382813 0.63351563 0 0 Z " fill="#3C5074" transform="translate(754,168)"/>
<path d="M0 0 C2.63884562 2.40111178 4.36413529 5.00555028 6.1875 8.0625 C6.71730469 8.94035156 7.24710938 9.81820312 7.79296875 10.72265625 C9 13 9 13 9 15 C8.01 15.33 7.02 15.66 6 16 C4.66666667 12 3.33333333 8 2 4 C1.01 4 0.02 4 -1 4 C-0.67 2.68 -0.34 1.36 0 0 Z " fill="#445675" transform="translate(797,157)"/>
<path d="M0 0 C0.66 0 1.32 0 2 0 C2.34512904 4.83180659 1.73064418 7.9511138 -1 12 C-3.61328125 12.66796875 -3.61328125 12.66796875 -6 13 C-5.65066406 12.39671875 -5.30132812 11.7934375 -4.94140625 11.171875 C-4.25884766 9.97304687 -4.25884766 9.97304687 -3.5625 8.75 C-3.11003906 7.96109375 -2.65757812 7.1721875 -2.19140625 6.359375 C-1.10688398 4.21166532 -0.46851284 2.34794939 0 0 Z " fill="#3A4C70" transform="translate(406,239)"/>
<path d="M0 0 C2.31309705 0.11341637 4.62550185 0.24103807 6.9375 0.375 C8.86916016 0.47941406 8.86916016 0.47941406 10.83984375 0.5859375 C12.40412109 0.79089844 12.40412109 0.79089844 14 1 C14.33 1.66 14.66 2.32 15 3 C10.38 3 5.76 3 1 3 C0.67 2.01 0.34 1.02 0 0 Z " fill="#3A5469" transform="translate(34,259)"/>
<path d="M0 0 C0.33 0 0.66 0 1 0 C1 4.29 1 8.58 1 13 C0.01 13.33 -0.98 13.66 -2 14 C-2 15.32 -2 16.64 -2 18 C-2.66 18 -3.32 18 -4 18 C-3.24427481 12.45801527 -3.24427481 12.45801527 -2 10.125 C-0.46106189 6.85475651 -0.35853508 3.58535082 0 0 Z " fill="#E4F4F8" transform="translate(5,110)"/>
<path d="M0 0 C0.93423645 3.01031744 1.04449911 3.86650268 0 7 C-3.59577618 9.12477683 -6.87161932 10.39288519 -11 11 C-10 9 -10 9 -6.625 7.1875 C-3.24981916 5.35090262 -1.66823881 3.53274101 0 0 Z " fill="#D2D9E0" transform="translate(61,252)"/>
<path d="M0 0 C0.33 0 0.66 0 1 0 C1 4.95 1 9.9 1 15 C0.34 14.67 -0.32 14.34 -1 14 C-2.26968434 9.04413531 -2.51109996 4.57906464 0 0 Z " fill="#2C3E62" transform="translate(98,204)"/>
<path d="M0 0 C6.75 0.875 6.75 0.875 9 2 C9.40729228 4.32156597 9.74438677 6.6568787 10 9 C9.278125 8.2575 8.55625 7.515 7.8125 6.75 C5.31407427 4.30709485 2.76356798 2.1318953 0 0 Z " fill="#435477" transform="translate(394,145)"/>
<path d="M0 0 C1.98 0 3.96 0 6 0 C4 3 4 3 1.6875 3.546875 C0.3571875 3.64742188 0.3571875 3.64742188 -1 3.75 C-1.886875 3.82734375 -2.77375 3.9046875 -3.6875 3.984375 C-6 4 -6 4 -8 3 C-8 2.34 -8 1.68 -8 1 C-5.36 1.33 -2.72 1.66 0 2 C0 1.34 0 0.68 0 0 Z " fill="#ECEDEC" transform="translate(12,301)"/>
<path d="M0 0 C1.27514492 3.82543475 0.52740413 5.33423008 -1 9 C-2.5 10.875 -2.5 10.875 -4 12 C-4.66 12 -5.32 12 -6 12 C-4.43358249 7.69235185 -2.31663844 3.93828536 0 0 Z " fill="#465575" transform="translate(748,179)"/>
<path d="M0 0 C-1.24663331 0.50833591 -2.49749387 1.00631145 -3.75 1.5 C-4.44609375 1.7784375 -5.1421875 2.056875 -5.859375 2.34375 C-8 3 -8 3 -12 3 C-12 2.34 -12 1.68 -12 1 C-3.96428571 -1.27678571 -3.96428571 -1.27678571 0 0 Z " fill="#485875" transform="translate(663,252)"/>
<path d="M0 0 C1 3 1 3 0.328125 4.97265625 C-0.02765625 5.66230469 -0.3834375 6.35195312 -0.75 7.0625 C-1.26820313 8.10083984 -1.26820313 8.10083984 -1.796875 9.16015625 C-3 11 -3 11 -6 13 C-4.58707905 8.1725201 -2.57025846 4.2837641 0 0 Z " fill="#E0E8F2" transform="translate(763,184)"/>
<path d="M0 0 C0.99 0 1.98 0 3 0 C1.84414715 3.91211733 0.64465038 6.8745041 -2 10 C-2.625 8.125 -2.625 8.125 -3 6 C-2.34 5.34 -1.68 4.68 -1 4 C-0.3574765 1.93125966 -0.3574765 1.93125966 0 0 Z " fill="#3E5071" transform="translate(757,189)"/>
<path d="M0 0 C3.48191452 1.88211596 6.03178994 3.5009599 8 7 C7.67 7.99 7.34 8.98 7 10 C4.7522025 7.94766315 3.9977758 6.99332739 3 4 C2.01 3.67 1.02 3.34 0 3 C0 2.01 0 1.02 0 0 Z " fill="#38486A" transform="translate(662,146)"/>
<path d="M0 0 C0.33 0 0.66 0 1 0 C1.28571429 8.57142857 1.28571429 8.57142857 -1 12 C-1.66 12 -2.32 12 -3 12 C-2.25749403 7.91621717 -1.17076699 3.98060777 0 0 Z " fill="#3F8ACC" transform="translate(61,244)"/>
<path d="M0 0 C0.99 0.33 1.98 0.66 3 1 C2.04882866 2.1725131 1.08882991 3.33787015 0.125 4.5 C-0.40867187 5.1496875 -0.94234375 5.799375 -1.4921875 6.46875 C-1.98976563 6.9740625 -2.48734375 7.479375 -3 8 C-3.66 8 -4.32 8 -5 8 C-5 7.01 -5 6.02 -5 5 C-4.01 5 -3.02 5 -2 5 C-2 4.34 -2 3.68 -2 3 C-1.34 3 -0.68 3 0 3 C0 2.01 0 1.02 0 0 Z " fill="#3F5470" transform="translate(668,243)"/>
<path d="M0 0 C2.74277578 3.19990508 4.6302836 6.00499382 6 10 C5.01 10.495 5.01 10.495 4 11 C1.7613435 8.7613435 1.1003605 6.93429467 0 4 C-0.33 3.34 -0.66 2.68 -1 2 C-0.67 1.34 -0.34 0.68 0 0 Z " fill="#405372" transform="translate(810,179)"/>
<path d="M0 0 C1 3 1 3 0.3125 5.5625 C-1 8 -1 8 -5 10 C-3.35 6.7 -1.7 3.4 0 0 Z " fill="#405472" transform="translate(761,156)"/>
<path d="M0 0 C0.66 0.33 1.32 0.66 2 1 C2 1.99 2 2.98 2 4 C-1.20062687 5.60031344 -3.72271806 4.03173691 -7 3 C-4.66785852 1.79371992 -2.50357861 0.8345262 0 0 Z " fill="#DBE5F3" transform="translate(661,195)"/>
<path d="M0 0 C6.625 -0.125 6.625 -0.125 10 1 C10 1.99 10 2.98 10 4 C6.7 3.01 3.4 2.02 0 1 C0 0.67 0 0.34 0 0 Z " fill="#1C3152" transform="translate(134,131)"/>
<path d="M0 0 C0.66 0 1.32 0 2 0 C2 0.66 2 1.32 2 2 C4.31 2 6.62 2 9 2 C9 2.33 9 2.66 9 3 C5.04 3 1.08 3 -3 3 C-2.01 2.01 -1.02 1.02 0 0 Z " fill="#2D426C" transform="translate(642,252)"/>
</svg>
